<svg width="229" height="184" viewBox="0 0 229 184" fill="none" xmlns="http://www.w3.org/2000/svg">
<rect width="108" height="86" rx="25" fill="#EBEBEB"/>
<rect y="98" width="108" height="86" rx="25" fill="#EBEBEB"/>
<rect x="121" y="98" width="108" height="86" rx="25" fill="#EBEBEB"/>
<rect x="121" width="108" height="86" rx="25" fill="#EBEBEB"/>
<rect x="65" y="82" width="100" height="26.25" fill="#407BFF"/>
<path d="M82.877 96.6865H78.9395V99.3525H83.5605V101H76.8887V91.0469H83.5469V92.708H78.9395V95.0801H82.877V96.6865ZM92.8574 101H90.8066L86.8145 94.4512V101H84.7637V91.0469H86.8145L90.8135 97.6094V91.0469H92.8574V101ZM105.948 97.6846C105.871 98.7555 105.474 99.5986 104.759 100.214C104.048 100.829 103.109 101.137 101.942 101.137C100.666 101.137 99.6615 100.708 98.9277 99.8516C98.1986 98.9902 97.834 97.8099 97.834 96.3105V95.7021C97.834 94.7451 98.0026 93.902 98.3398 93.1729C98.6771 92.4437 99.1579 91.8854 99.7822 91.498C100.411 91.1061 101.14 90.9102 101.97 90.9102C103.118 90.9102 104.043 91.2178 104.745 91.833C105.447 92.4482 105.853 93.3118 105.962 94.4238H103.911C103.861 93.7812 103.681 93.3164 103.371 93.0293C103.066 92.7376 102.599 92.5918 101.97 92.5918C101.286 92.5918 100.773 92.8379 100.432 93.3301C100.094 93.8177 99.9212 94.5765 99.9121 95.6064V96.3584C99.9121 97.4339 100.074 98.2201 100.397 98.7168C100.726 99.2135 101.241 99.4619 101.942 99.4619C102.576 99.4619 103.048 99.3184 103.357 99.0312C103.672 98.7396 103.852 98.2907 103.897 97.6846H105.948ZM115.471 96.249C115.471 97.2288 115.298 98.0879 114.951 98.8262C114.605 99.5645 114.108 100.134 113.461 100.535C112.818 100.936 112.08 101.137 111.246 101.137C110.421 101.137 109.685 100.938 109.038 100.542C108.391 100.146 107.89 99.5804 107.534 98.8467C107.179 98.1084 106.999 97.2607 106.994 96.3037V95.8115C106.994 94.8317 107.17 93.9704 107.521 93.2275C107.876 92.4801 108.375 91.9082 109.018 91.5117C109.665 91.1107 110.403 90.9102 111.232 90.9102C112.062 90.9102 112.798 91.1107 113.44 91.5117C114.088 91.9082 114.587 92.4801 114.938 93.2275C115.293 93.9704 115.471 94.8294 115.471 95.8047V96.249ZM113.393 95.7979C113.393 94.7542 113.206 93.9613 112.832 93.4189C112.458 92.8766 111.925 92.6055 111.232 92.6055C110.544 92.6055 110.013 92.8743 109.64 93.4121C109.266 93.9453 109.077 94.7292 109.072 95.7637V96.249C109.072 97.2653 109.259 98.0537 109.633 98.6143C110.007 99.1748 110.544 99.4551 111.246 99.4551C111.934 99.4551 112.463 99.1862 112.832 98.6484C113.201 98.1061 113.388 97.3177 113.393 96.2832V95.7979ZM124.494 91.0469V97.6025C124.494 98.6917 124.152 99.5531 123.469 100.187C122.79 100.82 121.86 101.137 120.68 101.137C119.518 101.137 118.595 100.829 117.911 100.214C117.228 99.5986 116.879 98.7533 116.865 97.6777V91.0469H118.916V97.6162C118.916 98.2679 119.071 98.7441 119.381 99.0449C119.695 99.3411 120.128 99.4893 120.68 99.4893C121.833 99.4893 122.418 98.8831 122.437 97.6709V91.0469H124.494ZM129.86 97.3564H128.227V101H126.176V91.0469H129.874C131.05 91.0469 131.957 91.3089 132.595 91.833C133.233 92.3571 133.552 93.0977 133.552 94.0547C133.552 94.7337 133.404 95.3011 133.107 95.7568C132.816 96.208 132.371 96.568 131.774 96.8369L133.928 100.904V101H131.727L129.86 97.3564ZM128.227 95.6953H129.881C130.396 95.6953 130.795 95.5654 131.077 95.3057C131.36 95.0413 131.501 94.679 131.501 94.2188C131.501 93.7493 131.367 93.3802 131.098 93.1113C130.833 92.8424 130.425 92.708 129.874 92.708H128.227V95.6953ZM140.278 98.3887C140.278 98.0013 140.142 97.7051 139.868 97.5C139.595 97.2904 139.103 97.0716 138.392 96.8438C137.681 96.6113 137.118 96.3835 136.703 96.1602C135.573 95.5495 135.008 94.7269 135.008 93.6924C135.008 93.1546 135.158 92.6761 135.459 92.2568C135.764 91.833 136.2 91.5026 136.765 91.2656C137.334 91.0286 137.972 90.9102 138.679 90.9102C139.39 90.9102 140.023 91.04 140.579 91.2998C141.135 91.555 141.566 91.9173 141.871 92.3867C142.181 92.8561 142.336 93.3893 142.336 93.9863H140.285C140.285 93.5306 140.142 93.1774 139.854 92.9268C139.567 92.6715 139.164 92.5439 138.645 92.5439C138.143 92.5439 137.754 92.651 137.476 92.8652C137.198 93.0749 137.059 93.3529 137.059 93.6992C137.059 94.0228 137.22 94.2939 137.544 94.5127C137.872 94.7314 138.353 94.9365 138.986 95.1279C140.153 95.4788 141.003 95.9141 141.536 96.4336C142.069 96.9531 142.336 97.6003 142.336 98.375C142.336 99.2363 142.01 99.9131 141.358 100.405C140.707 100.893 139.829 101.137 138.727 101.137C137.961 101.137 137.264 100.998 136.635 100.72C136.006 100.437 135.525 100.052 135.192 99.5645C134.864 99.0768 134.7 98.5117 134.7 97.8691H136.758C136.758 98.9674 137.414 99.5166 138.727 99.5166C139.214 99.5166 139.595 99.4186 139.868 99.2227C140.142 99.0221 140.278 98.7441 140.278 98.3887ZM147.189 100.029C147.189 99.7148 147.294 99.4596 147.504 99.2637C147.718 99.0677 147.985 98.9697 148.304 98.9697C148.627 98.9697 148.894 99.0677 149.104 99.2637C149.318 99.4596 149.425 99.7148 149.425 100.029C149.425 100.339 149.32 100.592 149.11 100.788C148.901 100.979 148.632 101.075 148.304 101.075C147.98 101.075 147.714 100.979 147.504 100.788C147.294 100.592 147.189 100.339 147.189 100.029ZM151.264 100.029C151.264 99.7148 151.368 99.4596 151.578 99.2637C151.792 99.0677 152.059 98.9697 152.378 98.9697C152.701 98.9697 152.968 99.0677 153.178 99.2637C153.392 99.4596 153.499 99.7148 153.499 100.029C153.499 100.339 153.394 100.592 153.185 100.788C152.975 100.979 152.706 101.075 152.378 101.075C152.054 101.075 151.788 100.979 151.578 100.788C151.368 100.592 151.264 100.339 151.264 100.029ZM155.338 100.029C155.338 99.7148 155.443 99.4596 155.652 99.2637C155.867 99.0677 156.133 98.9697 156.452 98.9697C156.776 98.9697 157.042 99.0677 157.252 99.2637C157.466 99.4596 157.573 99.7148 157.573 100.029C157.573 100.339 157.468 100.592 157.259 100.788C157.049 100.979 156.78 101.075 156.452 101.075C156.129 101.075 155.862 100.979 155.652 100.788C155.443 100.592 155.338 100.339 155.338 100.029Z" fill="white"/>
</svg>
