<svg width="34" height="34" viewBox="0 0 34 34" fill="none" xmlns="http://www.w3.org/2000/svg">
<path d="M14.7905 0.117745C7.12384 0.968316 0.957176 7.26254 0.123843 14.9177C-0.876157 23.4234 4.29051 30.7383 11.6238 33.1199V29.2073C11.6238 29.2073 10.9572 29.3774 10.1238 29.3774C7.79051 29.3774 6.79051 27.336 6.62384 26.1452C6.45718 25.4647 6.12384 24.9544 5.62384 24.4441C5.12384 24.274 4.95718 24.274 4.95718 24.1038C4.95718 23.7636 5.45718 23.7636 5.62384 23.7636C6.62384 23.7636 7.45718 24.9544 7.79051 25.4647C8.62384 26.8257 9.62384 27.1659 10.1238 27.1659C10.7905 27.1659 11.2905 26.9958 11.6238 26.8257C11.7905 25.6349 12.2905 24.4441 13.2905 23.7636C9.45718 22.913 6.62384 20.7016 6.62384 16.959C6.62384 15.0878 7.45718 13.2165 8.62384 11.8556C8.45718 11.5154 8.29051 10.6648 8.29051 9.47402C8.29051 8.79357 8.29051 7.77288 8.79051 6.7522C8.79051 6.7522 11.1238 6.7522 13.4572 8.96368C14.2905 8.62345 15.4572 8.45334 16.6238 8.45334C17.7905 8.45334 18.9572 8.62345 19.9572 8.96368C22.1238 6.7522 24.6238 6.7522 24.6238 6.7522C24.9572 7.77288 24.9572 8.79357 24.9572 9.47402C24.9572 10.8349 24.7905 11.5154 24.6238 11.8556C25.7905 13.2165 26.6238 14.9177 26.6238 16.959C26.6238 20.7016 23.7905 22.913 19.9572 23.7636C20.9572 24.6142 21.6238 26.1452 21.6238 27.6762V33.29C28.4572 31.0785 33.2905 24.6142 33.2905 17.1292C33.2905 6.92231 24.7905 -1.07305 14.7905 0.117745Z" fill="white"/>
</svg>
