<svg width="99" height="99" viewBox="0 0 99 99" fill="none" xmlns="http://www.w3.org/2000/svg">
<circle cx="49.5" cy="49.5" r="49.5" fill="white"/>
<circle cx="49.25" cy="49.75" r="47.25" fill="black"/>
<path d="M24.8566 39.7447V26.9244H25.0441L26.8957 29.9244V39.7447H24.8566ZM24.8566 24.6509V23.3384H26.6144L35.2863 37.2369V39.7447H34.2785L24.8566 24.6509ZM33.2473 31.9166V23.3384H35.2863V34.9166H35.0988L33.2473 31.9166ZM52.3723 75.7447V59.3384H54.4113V75.7447H52.3723ZM55.5832 75.7447V73.7291C57.1769 73.7291 58.2473 73.4791 58.7941 72.9791C59.2629 72.5416 59.4973 71.9244 59.4973 71.1275V63.9556C59.4973 62.5806 58.7082 61.7525 57.1301 61.4713C56.6926 61.3931 56.1769 61.3541 55.5832 61.3541V59.3384C58.3644 59.3384 60.1848 60.1509 61.0441 61.7759C61.3879 62.4009 61.5598 63.1275 61.5598 63.9556V71.1275C61.5598 74.065 59.7707 75.6041 56.1926 75.7447C55.9894 75.7447 55.7863 75.7447 55.5832 75.7447Z" fill="#EBEBEB"/>
</svg>
