<svg width="668" height="498" viewBox="0 0 668 498" fill="none" xmlns="http://www.w3.org/2000/svg">
<path d="M125.432 464.451C125.432 464.451 118.393 431.206 131.202 413.201C144.011 395.196 119.636 413.001 116.831 429.857C116.831 429.857 112.623 399.711 125.045 378.514C137.467 357.317 114.226 374.721 112.249 396.559C112.249 396.559 108.443 369.685 114.159 354.565C119.876 339.446 109.925 349.223 106.145 358.653C102.365 368.082 107.334 391.577 107.334 391.577C107.334 391.577 97.37 348.208 87.9402 351.654C78.5104 355.1 102.031 383.523 105.304 398.295C105.304 398.295 94.1777 378.407 85.7363 382.548C77.2949 386.688 98.8125 388.745 108.656 418.41L112.116 432.315C112.116 432.315 101.858 412.72 95.1661 418.878C88.4744 425.035 115.001 435.761 121.172 465.506L125.432 464.451Z" fill="#407BFF"/>
<path d="M124.057 466.361C124.057 466.361 122.574 424.447 101.871 406.71C81.1683 388.972 115.669 403.01 124.057 422.364C124.057 422.364 120.116 384.965 98.906 363.314C77.6956 341.663 110.74 355.554 119.622 381.132C119.622 381.132 116.163 347.74 104.823 331.405C93.4832 315.07 108.282 323.685 115.669 333.889C123.055 344.094 124.057 373.679 124.057 373.679C124.057 373.679 123.068 318.77 135.396 320.092C147.724 321.414 127.997 362.459 128.491 381.132C128.491 381.132 135.891 353.991 147.19 356.435C158.49 358.88 133.379 367.762 130.428 406.216V423.9C130.428 423.9 136.839 397.333 146.696 402.756C156.553 408.179 127.997 428.895 129.439 466.361H124.057Z" fill="#407BFF"/>
<path opacity="0.2" d="M124.057 466.361C124.057 466.361 122.574 424.447 101.871 406.71C81.1683 388.972 115.669 403.01 124.057 422.364C124.057 422.364 120.116 384.965 98.906 363.314C77.6956 341.663 110.74 355.554 119.622 381.132C119.622 381.132 116.163 347.74 104.823 331.405C93.4832 315.07 108.282 323.685 115.669 333.889C123.055 344.094 124.057 373.679 124.057 373.679C124.057 373.679 123.068 318.77 135.396 320.092C147.724 321.414 127.997 362.459 128.491 381.132C128.491 381.132 135.891 353.991 147.19 356.435C158.49 358.88 133.379 367.762 130.428 406.216V423.9C130.428 423.9 136.839 397.333 146.696 402.756C156.553 408.179 127.997 428.895 129.439 466.361H124.057Z" fill="white" fill-opacity="0.6"/>
<path d="M95.9408 463.916H156.82V470.488C156.82 474.384 155.272 478.121 152.517 480.877C149.762 483.632 146.025 485.18 142.128 485.18H110.633C106.736 485.18 102.999 483.632 100.244 480.877C97.4887 478.121 95.9408 474.384 95.9408 470.488V463.916Z" fill="black"/>
<path d="M87.9669 460.404V465.052C87.9705 466.544 88.5659 467.974 89.6225 469.029C90.6792 470.083 92.1108 470.675 93.6034 470.675H159.171C160.663 470.675 162.093 470.082 163.147 469.028C164.202 467.973 164.794 466.543 164.794 465.052V460.404H87.9669Z" fill="black"/>
<path opacity="0.2" d="M87.9669 460.404V465.052C87.9705 466.544 88.5659 467.974 89.6225 469.029C90.6792 470.083 92.1108 470.675 93.6034 470.675H159.171C160.663 470.675 162.093 470.082 163.147 469.028C164.202 467.973 164.794 466.543 164.794 465.052V460.404H87.9669Z" fill="white" fill-opacity="0.6"/>
<path d="M667.832 437.297H0V437.63H667.832V437.297Z" fill="#EBEBEB"/>
<path d="M600.915 458.787H556.678V459.121H600.915V458.787Z" fill="#EBEBEB"/>
<path d="M442.399 462.42H430.792V462.754H442.399V462.42Z" fill="#EBEBEB"/>
<path d="M555.343 446.392H529.711V446.726H555.343V446.392Z" fill="#EBEBEB"/>
<path d="M127.756 448.636H70.069V448.97H127.756V448.636Z" fill="#EBEBEB"/>
<path d="M148.112 448.636H139.657V448.97H148.112V448.636Z" fill="#EBEBEB"/>
<path d="M300.725 454.273H175.6V454.607H300.725V454.273Z" fill="#EBEBEB"/>
<path d="M316.553 377.726H58.6491C56.6287 377.722 54.6922 376.917 53.2648 375.487C51.8375 374.058 51.0358 372.12 51.0358 370.099V7.55986C51.0534 5.55106 51.8628 3.63031 53.2883 2.21482C54.7138 0.799339 56.6402 0.00344119 58.6491 0H316.553C318.575 0 320.515 0.80352 321.945 2.23379C323.376 3.66407 324.179 5.60393 324.179 7.62664V370.099C324.179 372.122 323.376 374.062 321.945 375.492C320.515 376.922 318.575 377.726 316.553 377.726V377.726ZM58.6491 0.267134C56.7172 0.270672 54.8657 1.04057 53.501 2.40784C52.1362 3.77511 51.3697 5.62802 51.3697 7.55986V370.099C51.3697 372.031 52.1362 373.884 53.501 375.251C54.8657 376.619 56.7172 377.388 58.6491 377.392H316.553C318.486 377.388 320.338 376.619 321.705 375.252C323.072 373.885 323.842 372.032 323.845 370.099V7.55986C323.842 5.62679 323.072 3.77391 321.705 2.40702C320.338 1.04014 318.486 0.270665 316.553 0.267134H58.6491Z" fill="#EBEBEB"/>
<path d="M605.47 377.726H347.553C345.532 377.722 343.594 376.918 342.164 375.488C340.735 374.059 339.93 372.121 339.927 370.099V7.55986C339.948 5.54984 340.76 3.6291 342.188 2.21399C343.615 0.798873 345.543 0.00340366 347.553 0H605.47C607.477 0.00695146 609.4 0.804403 610.822 2.21951C612.245 3.63462 613.052 5.55336 613.07 7.55986V370.099C613.07 372.117 612.27 374.053 610.846 375.483C609.421 376.912 607.488 377.719 605.47 377.726V377.726ZM347.553 0.267134C345.62 0.270665 343.767 1.04014 342.4 2.40702C341.033 3.77391 340.264 5.62679 340.26 7.55986V370.099C340.264 372.032 341.033 373.885 342.4 375.252C343.767 376.619 345.62 377.388 347.553 377.392H605.47C607.403 377.388 609.256 376.619 610.623 375.252C611.99 373.885 612.759 372.032 612.763 370.099V7.55986C612.759 5.62679 611.99 3.77391 610.623 2.40702C609.256 1.04014 607.403 0.270665 605.47 0.267134H347.553Z" fill="#EBEBEB"/>
<path d="M306.615 218.421V50.7152L90.7986 50.7152V218.421H306.615Z" fill="#EBEBEB"/>
<path d="M93.7904 215.429L303.623 215.429V53.7071L93.7904 53.7071L93.7904 215.429Z" fill="#EBEBEB"/>
<path d="M195.848 82.9181H194.513V105.464H195.848V82.9181Z" fill="#EBEBEB"/>
<path d="M144.572 178.071H143.237V104.81H239.752V147.123H238.416V106.145H144.572V178.071Z" fill="#EBEBEB"/>
<path d="M267.453 170.057H266.118V147.791H215.135V169.282H213.8V146.456H267.453V170.057Z" fill="#EBEBEB"/>
<path d="M219.249 74.637H171.112V91.2126H219.249V74.637Z" fill="#F5F5F5"/>
<path d="M262.738 114.4H216.858V132.404H262.738V114.4Z" fill="#F5F5F5"/>
<path d="M230.215 159.999H198.707V178.565H230.215V159.999Z" fill="#F5F5F5"/>
<path d="M283.669 163.004H249.916V177.109H283.669V163.004Z" fill="#F5F5F5"/>
<path d="M173.89 118.206H121.759V142.262H173.89V118.206Z" fill="#F5F5F5"/>
<path d="M160.547 169.282H127.262V186.859H160.547V169.282Z" fill="#F5F5F5"/>
<path d="M202.374 106.054L195.187 98.8667L187.999 106.054L195.187 113.241L202.374 106.054Z" fill="#F5F5F5"/>
<path d="M246.285 147.111L239.098 139.924L231.911 147.111L239.098 154.298L246.285 147.111Z" fill="#F5F5F5"/>
<path d="M527.534 78.9645H394.515V85.8031H527.534V78.9645Z" fill="#EBEBEB"/>
<path d="M406.496 53.7738H400.633V78.9644H406.496V53.7738Z" fill="#EBEBEB"/>
<path d="M434.839 53.7738H428.975V78.9644H434.839V53.7738Z" fill="#EBEBEB"/>
<path d="M467.009 53.1178L461.231 54.1138L465.51 78.9383L471.288 77.9423L467.009 53.1178Z" fill="#EBEBEB"/>
<path d="M413.762 57.0863H407.899V78.9645H413.762V57.0863Z" fill="#EBEBEB"/>
<path d="M427.226 57.0863H421.362V78.9645H427.226V57.0863Z" fill="#EBEBEB"/>
<path d="M461.232 57.0863H455.368V78.9645H461.232V57.0863Z" fill="#EBEBEB"/>
<path d="M442.531 56.3004L436.807 57.5725L441.554 78.9296L447.278 77.6575L442.531 56.3004Z" fill="#EBEBEB"/>
<path d="M418.824 52.5183H415.899V78.9645H418.824V52.5183Z" fill="#EBEBEB"/>
<path d="M453.672 52.5183H450.747V78.9645H453.672V52.5183Z" fill="#EBEBEB"/>
<path d="M514.778 59.0231H486.222V78.7375H514.778V59.0231Z" fill="#EBEBEB"/>
<path d="M394.515 136.825L527.534 136.825V129.987L394.515 129.987V136.825Z" fill="#EBEBEB"/>
<path d="M515.553 129.987H521.417V104.796H515.553V129.987Z" fill="#EBEBEB"/>
<path d="M487.21 129.987H493.074V104.796H487.21V129.987Z" fill="#EBEBEB"/>
<path d="M450.774 128.982L456.553 129.978L460.832 105.153L455.053 104.157L450.774 128.982Z" fill="#EBEBEB"/>
<path d="M508.287 129.987H514.151V108.109H508.287V129.987Z" fill="#EBEBEB"/>
<path d="M494.81 129.987H500.674V108.109H494.81V129.987Z" fill="#EBEBEB"/>
<path d="M460.818 129.987H466.681V108.109H460.818V129.987Z" fill="#EBEBEB"/>
<path d="M474.793 128.689L480.517 129.961L485.263 108.604L479.539 107.332L474.793 128.689Z" fill="#EBEBEB"/>
<path d="M503.225 129.987H506.15V103.541H503.225V129.987Z" fill="#EBEBEB"/>
<path d="M468.377 129.987H471.302V103.541H468.377V129.987Z" fill="#EBEBEB"/>
<path d="M407.284 129.76H435.841V110.045H407.284V129.76Z" fill="#EBEBEB"/>
<path d="M498.403 170.337H423.793V436.322H498.403V170.337Z" fill="#F5F5F5"/>
<path d="M491.965 177.924H430.231V430.284H491.965V177.924Z" fill="#EBEBEB"/>
<path d="M480.719 185.35H441.464V187.955H480.719V185.35Z" fill="#EBEBEB"/>
<path d="M480.719 196.583H441.464V199.188H480.719V196.583Z" fill="#EBEBEB"/>
<path d="M480.719 207.829H441.464V210.434H480.719V207.829Z" fill="#EBEBEB"/>
<path d="M480.719 219.076H441.464V221.68H480.719V219.076Z" fill="#EBEBEB"/>
<path d="M480.719 230.322H441.464V232.927H480.719V230.322Z" fill="#EBEBEB"/>
<path d="M480.719 241.555H441.464V244.159H480.719V241.555Z" fill="#EBEBEB"/>
<path d="M480.719 252.801H441.464V255.406H480.719V252.801Z" fill="#EBEBEB"/>
<path d="M480.719 344.241H441.464V346.845H480.719V344.241Z" fill="#EBEBEB"/>
<path d="M480.719 355.487H441.464V358.092H480.719V355.487Z" fill="#EBEBEB"/>
<path d="M480.719 366.733H441.464V369.338H480.719V366.733Z" fill="#EBEBEB"/>
<path d="M480.719 377.966H441.464V380.571H480.719V377.966Z" fill="#EBEBEB"/>
<path d="M480.719 389.213H441.464V391.817H480.719V389.213Z" fill="#EBEBEB"/>
<path d="M480.719 400.459H441.464V403.063H480.719V400.459Z" fill="#EBEBEB"/>
<path d="M480.719 411.705H441.464V414.31H480.719V411.705Z" fill="#EBEBEB"/>
<path d="M482.656 291.295C482.656 292.154 482.401 292.993 481.924 293.707C481.447 294.421 480.769 294.977 479.976 295.306C479.183 295.634 478.31 295.72 477.468 295.553C476.626 295.385 475.852 294.972 475.245 294.365C474.638 293.757 474.225 292.984 474.057 292.142C473.89 291.3 473.976 290.427 474.304 289.634C474.633 288.841 475.189 288.163 475.903 287.686C476.617 287.209 477.456 286.954 478.315 286.954C478.885 286.952 479.451 287.063 479.978 287.281C480.506 287.499 480.985 287.818 481.388 288.222C481.792 288.625 482.111 289.104 482.329 289.632C482.546 290.159 482.657 290.724 482.656 291.295V291.295Z" fill="#EBEBEB"/>
<path d="M421.603 170.337H346.992V436.322H421.603V170.337Z" fill="#F5F5F5"/>
<path d="M415.165 177.924H353.43V430.284H415.165V177.924Z" fill="#EBEBEB"/>
<path d="M403.918 185.35H364.663V187.955H403.918V185.35Z" fill="#EBEBEB"/>
<path d="M403.918 196.583H364.663V199.188H403.918V196.583Z" fill="#EBEBEB"/>
<path d="M403.918 207.829H364.663V210.434H403.918V207.829Z" fill="#EBEBEB"/>
<path d="M403.918 219.076H364.663V221.68H403.918V219.076Z" fill="#EBEBEB"/>
<path d="M403.918 230.322H364.663V232.927H403.918V230.322Z" fill="#EBEBEB"/>
<path d="M403.918 241.555H364.663V244.159H403.918V241.555Z" fill="#EBEBEB"/>
<path d="M403.918 252.801H364.663V255.406H403.918V252.801Z" fill="#EBEBEB"/>
<path d="M403.918 344.241H364.663V346.845H403.918V344.241Z" fill="#EBEBEB"/>
<path d="M403.918 355.487H364.663V358.092H403.918V355.487Z" fill="#EBEBEB"/>
<path d="M403.918 366.733H364.663V369.338H403.918V366.733Z" fill="#EBEBEB"/>
<path d="M403.918 377.966H364.663V380.571H403.918V377.966Z" fill="#EBEBEB"/>
<path d="M403.918 389.213H364.663V391.817H403.918V389.213Z" fill="#EBEBEB"/>
<path d="M403.918 400.459H364.663V403.063H403.918V400.459Z" fill="#EBEBEB"/>
<path d="M403.918 411.705H364.663V414.31H403.918V411.705Z" fill="#EBEBEB"/>
<path d="M405.855 291.295C405.855 292.154 405.6 292.993 405.123 293.707C404.647 294.421 403.969 294.977 403.175 295.306C402.382 295.634 401.509 295.72 400.667 295.553C399.825 295.385 399.052 294.972 398.445 294.365C397.838 293.757 397.424 292.984 397.257 292.142C397.089 291.3 397.175 290.427 397.504 289.634C397.832 288.841 398.389 288.163 399.102 287.686C399.816 287.209 400.656 286.954 401.514 286.954C402.085 286.952 402.65 287.063 403.177 287.281C403.705 287.499 404.184 287.818 404.588 288.222C404.991 288.625 405.311 289.104 405.528 289.632C405.746 290.159 405.857 290.724 405.855 291.295V291.295Z" fill="#EBEBEB"/>
<path d="M575.204 170.337H500.594V436.322H575.204V170.337Z" fill="#F5F5F5"/>
<path d="M568.766 177.924H507.032V430.284H568.766V177.924Z" fill="#EBEBEB"/>
<path d="M557.52 185.35H518.264V187.955H557.52V185.35Z" fill="#EBEBEB"/>
<path d="M557.52 196.583H518.264V199.188H557.52V196.583Z" fill="#EBEBEB"/>
<path d="M557.52 207.829H518.264V210.434H557.52V207.829Z" fill="#EBEBEB"/>
<path d="M557.52 219.076H518.264V221.68H557.52V219.076Z" fill="#EBEBEB"/>
<path d="M557.52 230.322H518.264V232.927H557.52V230.322Z" fill="#EBEBEB"/>
<path d="M557.52 241.555H518.264V244.159H557.52V241.555Z" fill="#EBEBEB"/>
<path d="M557.52 252.801H518.264V255.406H557.52V252.801Z" fill="#EBEBEB"/>
<path d="M557.52 344.241H518.264V346.845H557.52V344.241Z" fill="#EBEBEB"/>
<path d="M557.52 355.487H518.264V358.092H557.52V355.487Z" fill="#EBEBEB"/>
<path d="M557.52 366.733H518.264V369.338H557.52V366.733Z" fill="#EBEBEB"/>
<path d="M557.52 377.966H518.264V380.571H557.52V377.966Z" fill="#EBEBEB"/>
<path d="M557.52 389.213H518.264V391.817H557.52V389.213Z" fill="#EBEBEB"/>
<path d="M557.52 400.459H518.264V403.063H557.52V400.459Z" fill="#EBEBEB"/>
<path d="M557.52 411.705H518.264V414.31H557.52V411.705Z" fill="#EBEBEB"/>
<path d="M559.456 291.295C559.456 292.154 559.202 292.993 558.725 293.707C558.248 294.421 557.57 294.977 556.777 295.306C555.984 295.634 555.111 295.72 554.269 295.553C553.427 295.385 552.653 294.972 552.046 294.365C551.439 293.757 551.026 292.984 550.858 292.142C550.691 291.3 550.777 290.427 551.105 289.634C551.434 288.841 551.99 288.163 552.704 287.686C553.418 287.209 554.257 286.954 555.116 286.954C555.686 286.952 556.251 287.063 556.779 287.281C557.306 287.499 557.786 287.818 558.189 288.222C558.592 288.625 558.912 289.104 559.13 289.632C559.347 290.159 559.458 290.724 559.456 291.295V291.295Z" fill="#EBEBEB"/>
<path d="M333.916 497.615C476.942 497.615 592.888 490.846 592.888 482.496C592.888 474.145 476.942 467.376 333.916 467.376C190.89 467.376 74.9441 474.145 74.9441 482.496C74.9441 490.846 190.89 497.615 333.916 497.615Z" fill="#F5F5F5"/>
<path d="M560.191 459.068C560.413 458.613 560.522 458.111 560.508 457.605C560.495 457.098 560.358 456.603 560.112 456.161C559.865 455.719 559.515 455.343 559.092 455.065C558.668 454.788 558.184 454.616 557.68 454.567C558.115 453.276 558.144 451.882 557.765 450.574C557.385 449.266 556.614 448.105 555.556 447.247C555.303 447.012 554.979 446.866 554.635 446.833C554.267 446.872 553.921 447.026 553.646 447.274L547.769 451.481C547.297 451.773 546.899 452.171 546.607 452.643C545.405 454.967 549.733 457.986 547.943 459.856C547.435 460.403 546.607 460.524 545.966 460.924C544.631 461.793 544.403 463.716 543.749 465.225C543.094 466.735 540.837 467.897 539.969 466.561C540.61 465.118 538.633 463.89 537.084 463.676C535.535 463.462 533.865 463.409 532.997 461.926C530.766 463.89 525.758 458.427 525.864 456.236C524.983 456.395 524.173 456.826 523.548 457.468C522.923 458.11 522.514 458.93 522.378 459.816C522.122 461.629 522.059 463.465 522.191 465.292C522.191 468.858 520.989 472.344 521.043 475.897C521.043 478.675 522.165 481.747 524.702 482.856C525.958 483.313 527.297 483.495 528.629 483.39L557.506 483.203C558.2 483.256 558.896 483.142 559.537 482.869C560.872 482.188 561.126 480.478 561.246 479.009C561.754 472.732 562.27 466.458 562.795 460.19L560.191 459.068Z" fill="#407BFF"/>
<path opacity="0.3" d="M560.191 459.068C560.413 458.613 560.522 458.111 560.508 457.605C560.495 457.098 560.358 456.603 560.112 456.161C559.865 455.719 559.515 455.343 559.092 455.065C558.668 454.788 558.184 454.616 557.68 454.567C558.115 453.276 558.144 451.882 557.765 450.574C557.385 449.266 556.614 448.105 555.556 447.247C555.303 447.012 554.979 446.866 554.635 446.833C554.267 446.872 553.921 447.026 553.646 447.274L547.769 451.481C547.297 451.773 546.899 452.171 546.607 452.643C545.405 454.967 549.733 457.986 547.943 459.856C547.435 460.403 546.607 460.524 545.966 460.924C544.631 461.793 544.403 463.716 543.749 465.225C543.094 466.735 540.837 467.897 539.969 466.561C540.61 465.118 538.633 463.89 537.084 463.676C535.535 463.462 533.865 463.409 532.997 461.926C530.766 463.89 525.758 458.427 525.864 456.236C524.983 456.395 524.173 456.826 523.548 457.468C522.923 458.11 522.514 458.93 522.378 459.816C522.122 461.629 522.059 463.465 522.191 465.292C522.191 468.858 520.989 472.344 521.043 475.897C521.043 478.675 522.165 481.747 524.702 482.856C525.958 483.313 527.297 483.495 528.629 483.39L557.506 483.203C558.2 483.256 558.896 483.142 559.537 482.869C560.872 482.188 561.126 480.478 561.246 479.009C561.754 472.732 562.27 466.458 562.795 460.19L560.191 459.068Z" fill="white" fill-opacity="0.6"/>
<path d="M561.874 428.548H517.076L517.436 433.076L517.704 436.308L518.385 444.723L518.772 449.545L519.293 455.982L519.507 458.734L519.587 459.562L519.854 462.808L520.201 467.242L520.428 470.007L520.655 472.812L520.922 476.044L521.123 478.502L521.35 481.267L521.443 482.455H562.568L562.662 481.267L562.876 478.515L563.076 476.044L563.343 472.798L563.57 470.007L563.797 467.242L564.158 462.794L564.412 459.562L564.478 458.734L564.706 455.982L565.226 449.545L565.614 444.723L566.295 436.308L566.549 433.076L566.923 428.548H561.874ZM564.545 431.513L563.677 430.645H564.625L564.545 431.513ZM564.332 434.264L564.238 435.36L560.231 439.367L555.636 434.772L559.764 430.645H560.725L564.332 434.264ZM563.17 448.596L560.231 451.535L555.636 446.94L560.244 442.345L563.423 445.524L563.17 448.596ZM520.535 445.524L523.714 442.345L528.309 446.94L523.714 451.535L520.776 448.596L520.535 445.524ZM558.748 440.849L554.14 445.457L549.546 440.849L554.14 436.255L558.748 440.849ZM551.509 430.645H556.772L554.1 433.316L551.509 430.645ZM552.644 446.94L548.063 451.535L543.455 446.94L548.063 442.345L552.644 446.94ZM537.378 453.017L541.972 448.436L546.567 453.017L541.972 457.625L537.378 453.017ZM540.477 459.108L535.882 463.716L531.287 459.121L535.895 454.513L540.477 459.108ZM548.063 454.513L552.644 459.121L548.063 463.716L543.455 459.108L548.063 454.513ZM541.972 445.457L537.378 440.849L541.972 436.255L546.567 440.849L541.972 445.457ZM540.477 446.94L535.895 451.535L531.287 446.94L535.895 442.345L540.477 446.94ZM529.791 445.457L525.197 440.849L529.791 436.255L534.399 440.849L529.791 445.457ZM529.791 448.436L534.399 453.017L529.791 457.625L525.197 453.017L529.791 448.436ZM534.399 465.199L529.791 469.793L525.197 465.199L529.791 460.604L534.399 465.199ZM535.882 466.694L540.477 471.289L535.895 475.897L531.287 471.289L535.882 466.694ZM537.378 465.199L541.972 460.604L546.567 465.199L541.972 469.793L537.378 465.199ZM548.063 466.694L552.644 471.289L548.063 475.897L543.455 471.289L548.063 466.694ZM554.167 472.825L558.775 477.433L555.797 480.412H552.551L549.572 477.433L554.167 472.825ZM549.572 465.252L554.167 460.657L558.775 465.252L554.167 469.847L549.572 465.252ZM549.572 453.071L554.167 448.489L558.775 453.071L554.167 457.679L549.572 453.071ZM552.671 434.825L548.09 439.434L543.482 434.839L547.596 430.712H548.571L552.671 434.825ZM541.986 433.343L539.315 430.672H544.564L541.986 433.343ZM540.49 434.825L535.922 439.434L531.314 434.839L535.428 430.712H536.403L540.49 434.825ZM532.476 430.698L529.805 433.37L527.133 430.698H532.476ZM524.248 430.698L528.362 434.825L523.741 439.434L519.734 435.427L519.654 434.331L523.247 430.712L524.248 430.698ZM520.241 430.698L519.386 431.553L519.32 430.698H520.241ZM519.961 438.712L522.205 440.956L520.295 442.88L519.961 438.712ZM521.216 454.126L521.029 451.949L522.205 453.124L521.216 454.126ZM521.43 456.904L523.701 454.62L528.295 459.228L523.701 463.823L521.844 461.966L521.43 456.904ZM522.111 465.412V465.212L522.205 465.305L522.111 465.412ZM522.913 475.203L522.338 468.15L523.674 466.815L528.269 471.409L523.674 476.004L522.886 475.216L522.913 475.203ZM523.34 480.465L523.247 479.41L523.701 478.969L525.183 480.465H523.34ZM525.183 477.487L529.778 472.879L534.386 477.487L531.407 480.465H528.162L525.183 477.487ZM534.386 480.465L535.882 478.969L537.364 480.465H534.386ZM540.343 480.465L537.364 477.487L541.959 472.879L546.554 477.487L543.615 480.358L540.343 480.465ZM546.554 480.465L548.05 478.969L549.546 480.465H546.554ZM560.578 480.465H558.722L560.218 478.969L560.658 479.41L560.578 480.465ZM561.006 475.203L560.218 475.991L555.636 471.289L560.244 466.694L561.58 468.03L561.006 475.203ZM561.82 465.199V465.412L561.727 465.305L561.847 465.199H561.82ZM562.074 461.966L560.218 463.823L555.636 459.121L560.244 454.513L562.515 456.797L562.074 461.966ZM562.715 454.139L561.7 453.124L562.889 451.949L562.715 454.139ZM563.971 438.699L563.624 442.893L561.7 440.956L563.971 438.699Z" fill="#407BFF"/>
<g opacity="0.6">
<path opacity="0.6" d="M561.874 428.548H517.076L517.436 433.076L517.704 436.308L518.385 444.723L518.772 449.545L519.293 455.982L519.507 458.734L519.587 459.562L519.854 462.808L520.201 467.242L520.428 470.007L520.655 472.812L520.922 476.044L521.123 478.502L521.35 481.267L521.443 482.455H562.568L562.662 481.267L562.876 478.515L563.076 476.044L563.343 472.798L563.57 470.007L563.797 467.242L564.158 462.794L564.412 459.562L564.478 458.734L564.706 455.982L565.226 449.545L565.614 444.723L566.295 436.308L566.549 433.076L566.923 428.548H561.874ZM564.545 431.513L563.677 430.645H564.625L564.545 431.513ZM564.332 434.264L564.238 435.36L560.231 439.367L555.636 434.772L559.764 430.645H560.725L564.332 434.264ZM563.17 448.596L560.231 451.535L555.636 446.94L560.244 442.345L563.423 445.524L563.17 448.596ZM520.535 445.524L523.714 442.345L528.309 446.94L523.714 451.535L520.776 448.596L520.535 445.524ZM558.748 440.849L554.14 445.457L549.546 440.849L554.14 436.255L558.748 440.849ZM551.509 430.645H556.772L554.1 433.316L551.509 430.645ZM552.644 446.94L548.063 451.535L543.455 446.94L548.063 442.345L552.644 446.94ZM537.378 453.017L541.972 448.436L546.567 453.017L541.972 457.625L537.378 453.017ZM540.477 459.108L535.882 463.716L531.287 459.121L535.895 454.513L540.477 459.108ZM548.063 454.513L552.644 459.121L548.063 463.716L543.455 459.108L548.063 454.513ZM541.972 445.457L537.378 440.849L541.972 436.255L546.567 440.849L541.972 445.457ZM540.477 446.94L535.895 451.535L531.287 446.94L535.895 442.345L540.477 446.94ZM529.791 445.457L525.197 440.849L529.791 436.255L534.399 440.849L529.791 445.457ZM529.791 448.436L534.399 453.017L529.791 457.625L525.197 453.017L529.791 448.436ZM534.399 465.199L529.791 469.793L525.197 465.199L529.791 460.604L534.399 465.199ZM535.882 466.694L540.477 471.289L535.895 475.897L531.287 471.289L535.882 466.694ZM537.378 465.199L541.972 460.604L546.567 465.199L541.972 469.793L537.378 465.199ZM548.063 466.694L552.644 471.289L548.063 475.897L543.455 471.289L548.063 466.694ZM554.167 472.825L558.775 477.433L555.797 480.412H552.551L549.572 477.433L554.167 472.825ZM549.572 465.252L554.167 460.657L558.775 465.252L554.167 469.847L549.572 465.252ZM549.572 453.071L554.167 448.489L558.775 453.071L554.167 457.679L549.572 453.071ZM552.671 434.825L548.09 439.434L543.482 434.839L547.596 430.712H548.571L552.671 434.825ZM541.986 433.343L539.315 430.672H544.564L541.986 433.343ZM540.49 434.825L535.922 439.434L531.314 434.839L535.428 430.712H536.403L540.49 434.825ZM532.476 430.698L529.805 433.37L527.133 430.698H532.476ZM524.248 430.698L528.362 434.825L523.741 439.434L519.734 435.427L519.654 434.331L523.247 430.712L524.248 430.698ZM520.241 430.698L519.386 431.553L519.32 430.698H520.241ZM519.961 438.712L522.205 440.956L520.295 442.88L519.961 438.712ZM521.216 454.126L521.029 451.949L522.205 453.124L521.216 454.126ZM521.43 456.904L523.701 454.62L528.295 459.228L523.701 463.823L521.844 461.966L521.43 456.904ZM522.111 465.412V465.212L522.205 465.305L522.111 465.412ZM522.913 475.203L522.338 468.15L523.674 466.815L528.269 471.409L523.674 476.004L522.886 475.216L522.913 475.203ZM523.34 480.465L523.247 479.41L523.701 478.969L525.183 480.465H523.34ZM525.183 477.487L529.778 472.879L534.386 477.487L531.407 480.465H528.162L525.183 477.487ZM534.386 480.465L535.882 478.969L537.364 480.465H534.386ZM540.343 480.465L537.364 477.487L541.959 472.879L546.554 477.487L543.615 480.358L540.343 480.465ZM546.554 480.465L548.05 478.969L549.546 480.465H546.554ZM560.578 480.465H558.722L560.218 478.969L560.658 479.41L560.578 480.465ZM561.006 475.203L560.218 475.991L555.636 471.289L560.244 466.694L561.58 468.03L561.006 475.203ZM561.82 465.199V465.412L561.727 465.305L561.847 465.199H561.82ZM562.074 461.966L560.218 463.823L555.636 459.121L560.244 454.513L562.515 456.797L562.074 461.966ZM562.715 454.139L561.7 453.124L562.889 451.949L562.715 454.139ZM563.971 438.699L563.624 442.893L561.7 440.956L563.971 438.699Z" fill="white" fill-opacity="0.6"/>
</g>
<path d="M516.395 432.528H567.604C568.814 432.528 569.794 431.547 569.794 430.338V428.855C569.794 427.645 568.814 426.665 567.604 426.665H516.395C515.185 426.665 514.204 427.645 514.204 428.855V430.338C514.204 431.547 515.185 432.528 516.395 432.528Z" fill="#407BFF"/>
<path d="M563.597 479.303H520.402C519.192 479.303 518.211 480.284 518.211 481.494V482.976C518.211 484.186 519.192 485.167 520.402 485.167H563.597C564.807 485.167 565.787 484.186 565.787 482.976V481.494C565.787 480.284 564.807 479.303 563.597 479.303Z" fill="#407BFF"/>
<path d="M490.095 455.782L452.857 452.123V410.129H438.098V452.109L400.699 455.782C398.908 455.958 397.246 456.794 396.036 458.127C394.827 459.46 394.156 461.195 394.155 462.995V468.591H496.613V462.995C496.613 461.199 495.946 459.467 494.742 458.135C493.538 456.802 491.882 455.964 490.095 455.782V455.782Z" fill="black"/>
<path opacity="0.1" d="M490.095 455.782L452.857 452.123V410.129H438.098V452.109L400.699 455.782C398.908 455.958 397.246 456.794 396.036 458.127C394.827 459.46 394.156 461.195 394.155 462.995V468.591H496.613V462.995C496.613 461.199 495.946 459.467 494.742 458.135C493.538 456.802 491.882 455.964 490.095 455.782V455.782Z" fill="white" fill-opacity="0.6"/>
<path d="M398.108 485.167C403.434 485.167 407.752 480.849 407.752 475.523C407.752 470.197 403.434 465.88 398.108 465.88C392.782 465.88 388.465 470.197 388.465 475.523C388.465 480.849 392.782 485.167 398.108 485.167Z" fill="black"/>
<path d="M492.686 485.167C498.012 485.167 502.33 480.849 502.33 475.523C502.33 470.197 498.012 465.88 492.686 465.88C487.361 465.88 483.043 470.197 483.043 475.523C483.043 480.849 487.361 485.167 492.686 485.167Z" fill="black"/>
<path d="M435.56 374.761H455.461V415.846C455.461 417.309 454.88 418.712 453.846 419.746C452.811 420.781 451.408 421.362 449.945 421.362H441.143C439.68 421.362 438.277 420.781 437.243 419.746C436.208 418.712 435.627 417.309 435.627 415.846V374.761H435.56Z" fill="black"/>
<path opacity="0.2" d="M435.56 374.761H455.461V415.846C455.461 417.309 454.88 418.712 453.846 419.746C452.811 420.781 451.408 421.362 449.945 421.362H441.143C439.68 421.362 438.277 420.781 437.243 419.746C436.208 418.712 435.627 417.309 435.627 415.846V374.761H435.56Z" fill="white" fill-opacity="0.6"/>
<path d="M497.014 293.846C497.014 293.846 485.955 362.873 464.143 374.747H486.315C486.315 374.747 508.234 351.28 514.912 293.846H497.014Z" fill="black"/>
<path opacity="0.1" d="M497.014 293.846C497.014 293.846 485.955 362.873 464.143 374.747H486.315C486.315 374.747 508.234 351.28 514.912 293.846H497.014Z" fill="white" fill-opacity="0.6"/>
<path d="M493.875 380.117H394.462V371.689C394.462 369.917 395.165 368.219 396.418 366.966C397.67 365.714 399.369 365.01 401.14 365.01H487.197C488.968 365.01 490.667 365.714 491.919 366.966C493.172 368.219 493.875 369.917 493.875 371.689V380.117Z" fill="#407BFF"/>
<path d="M393.006 380.117H495.331C496.814 380.117 498.016 378.915 498.016 377.432V375.242C498.016 373.759 496.814 372.557 495.331 372.557H393.006C391.523 372.557 390.321 373.759 390.321 375.242V377.432C390.321 378.915 391.523 380.117 393.006 380.117Z" fill="black"/>
<path opacity="0.6" d="M393.006 380.117H495.331C496.814 380.117 498.016 378.915 498.016 377.432V375.242C498.016 373.759 496.814 372.557 495.331 372.557H393.006C391.523 372.557 390.321 373.759 390.321 375.242V377.432C390.321 378.915 391.523 380.117 393.006 380.117Z" fill="white" fill-opacity="0.6"/>
<path d="M517.53 307.884H481.988C471.583 307.884 464.824 299.536 466.895 289.185L469.66 275.441C471.717 265.143 481.841 256.741 492.246 256.741H527.774C538.193 256.741 544.951 265.089 542.881 275.441L540.116 289.185C538.046 299.536 527.935 307.884 517.53 307.884Z" fill="#407BFF"/>
<path d="M337.549 261.643L328.346 256.448C326.909 255.287 325.214 254.49 323.404 254.123C318.325 254.04 313.249 254.438 308.245 255.312C306.909 255.833 307.39 266.559 308.245 266.732C309.099 266.906 322.389 267.066 323.578 266.732C324.767 266.398 327.665 263.153 327.665 263.153L334.49 267.721L337.549 261.643Z" fill="#EBB376"/>
<path d="M379.195 247.272C374.36 251.599 359.16 269.724 356.783 270.379C354.405 271.033 332.18 257.022 332.18 257.022L329.027 265.851C329.027 265.851 349.944 283.067 356.783 284.256C364.196 285.592 388.905 265.557 388.905 265.557L379.195 247.272Z" fill="#407BFF"/>
<path opacity="0.5" d="M388.905 265.557C388.905 265.557 383.336 270.071 376.657 274.666C369.311 279.742 360.629 284.937 356.769 284.256C349.917 283.081 329.001 265.864 329.001 265.864L332.153 257.035C332.153 257.035 354.405 271.02 356.769 270.392C359.133 269.764 374.347 251.612 379.155 247.285L385.513 259.226L388.905 265.557Z" fill="white" fill-opacity="0.6"/>
<path opacity="0.2" d="M388.905 265.557C388.905 265.557 383.336 270.071 376.657 274.666C377.793 268.375 382.922 262.057 385.513 259.212L388.905 265.557Z" fill="black"/>
<path d="M402.743 303.917C402.743 303.917 380.29 264.675 379.195 247.272C379.195 247.272 386.902 233.02 397.013 229.908C407.124 226.796 433.891 228.572 433.891 228.572C433.891 228.572 455.061 250.29 466.521 299.696L402.743 303.917Z" fill="#407BFF"/>
<path opacity="0.7" d="M402.743 303.917C402.743 303.917 380.29 264.675 379.195 247.272C379.195 247.272 386.902 233.02 397.013 229.908C407.124 226.796 433.891 228.572 433.891 228.572C433.891 228.572 455.061 250.29 466.521 299.696L402.743 303.917Z" fill="white" fill-opacity="0.6"/>
<path opacity="0.1" d="M418.584 258.464L431.887 255.339L436.736 267.64L431.62 273.103L423.285 270.379L418.584 258.464Z" fill="black"/>
<path d="M414.63 471.89L403.224 474.014L393.099 448.596L404.493 446.486L414.63 471.89Z" fill="#EBB376"/>
<path opacity="0.2" d="M404.493 446.486L393.113 448.61L398.896 463.142L410.089 460.484L404.493 446.486Z" fill="black"/>
<path d="M293.325 476.245L283.829 469.593L294.888 444.576L304.371 451.228L293.325 476.245Z" fill="#EBB376"/>
<path opacity="0.2" d="M304.371 451.228L294.888 444.589L288.57 458.894L298.294 465.025L304.371 451.228Z" fill="black"/>
<path d="M452.002 342.531L415.605 353.684L342.999 375.963C326.263 414.831 305.76 455.462 305.76 455.462L286.767 447.661C286.767 447.661 307.216 379.422 313.187 362.366C322.723 335.145 424.608 316.953 424.608 316.953L452.002 342.531Z" fill="black"/>
<path d="M304.812 462.594L281.424 452.47L284.47 441.784L309.901 453.391L304.812 462.594Z" fill="#407BFF"/>
<path opacity="0.2" d="M304.812 462.594L281.424 452.47L284.47 441.784L309.901 453.391L304.812 462.594Z" fill="white" fill-opacity="0.6"/>
<path d="M282.373 468.912C282.373 468.912 282.239 468.778 282.239 468.765L282.092 468.618L282.253 468.751C282.333 468.591 283.949 465.733 283.348 464.25C283.271 464.064 283.153 463.897 283.002 463.763C282.852 463.629 282.673 463.531 282.48 463.476C282.266 463.393 282.032 463.386 281.814 463.454C281.595 463.522 281.407 463.661 281.278 463.849C280.886 464.767 280.83 465.793 281.117 466.748C280.343 465.773 279.368 464.798 278.553 464.758C278.38 464.758 278.21 464.799 278.057 464.878C277.904 464.957 277.771 465.071 277.671 465.212C277.484 465.412 277.357 465.661 277.305 465.931C277.253 466.2 277.278 466.479 277.377 466.735C277.778 467.384 278.407 467.86 279.14 468.07C280.09 468.462 281.08 468.748 282.092 468.925H282.186H282.266L282.373 468.912ZM281.718 464.21C281.812 464.077 281.972 463.943 282.346 464.063H282.466C282.565 464.106 282.653 464.168 282.727 464.246C282.8 464.324 282.857 464.417 282.894 464.517C283.268 465.399 282.613 467.122 282.146 468.124C282.101 468.045 282.052 467.969 281.999 467.897C281.487 466.736 281.388 465.435 281.718 464.21V464.21ZM277.818 466.534C277.765 466.369 277.757 466.193 277.795 466.024C277.832 465.855 277.914 465.699 278.032 465.573C278.078 465.501 278.141 465.443 278.216 465.403C278.291 465.363 278.375 465.343 278.459 465.345C279.274 465.345 280.65 467.042 281.531 468.364C279.528 467.91 278.165 467.242 277.818 466.534Z" fill="#407BFF"/>
<path d="M283.695 467.963L295.609 473.173C295.711 473.211 295.804 473.269 295.883 473.344C295.961 473.419 296.024 473.509 296.068 473.608C296.112 473.708 296.135 473.815 296.136 473.924C296.138 474.032 296.117 474.14 296.077 474.241V474.241L292.51 483.938C292.293 484.43 291.892 484.817 291.393 485.017C290.893 485.217 290.336 485.213 289.839 485.007C285.712 483.123 283.842 482.015 278.62 479.664C275.401 478.248 268.909 475.764 264.822 473.132C260.735 470.501 263.486 466.534 265.41 467.282C270.071 469.045 277.564 468.805 281.585 467.763C282.291 467.591 283.034 467.661 283.695 467.963V467.963Z" fill="black"/>
<path d="M401.808 472.825C401.808 472.625 401.607 469.339 400.405 468.297C400.216 468.158 399.999 468.059 399.769 468.009C399.539 467.958 399.301 467.956 399.07 468.004C398.832 468.02 398.607 468.113 398.428 468.27C398.25 468.427 398.128 468.639 398.081 468.872C398.126 469.87 398.529 470.818 399.217 471.543C398.252 470.971 397.117 470.758 396.011 470.942C395.853 471.018 395.717 471.133 395.614 471.275C395.511 471.417 395.446 471.583 395.423 471.757C395.35 472.019 395.351 472.297 395.427 472.559C395.502 472.821 395.649 473.056 395.851 473.239C396.507 473.651 397.292 473.804 398.055 473.667C399.08 473.58 400.093 473.379 401.073 473.066C401.088 473.072 401.104 473.075 401.12 473.075C401.136 473.075 401.152 473.072 401.167 473.066C401.167 473.066 401.167 473.066 401.167 472.986C401.167 472.906 401.447 472.919 401.461 472.879H401.701L401.808 472.825ZM398.616 468.979C398.616 468.818 398.722 468.631 399.096 468.565H399.23C399.337 468.558 399.445 468.574 399.546 468.611C399.647 468.647 399.739 468.705 399.818 468.778C400.552 469.393 400.753 471.223 400.806 472.318L400.566 472.184C399.554 471.383 398.862 470.246 398.616 468.979V468.979ZM396.251 472.825C396.131 472.702 396.045 472.551 396 472.384C395.956 472.218 395.955 472.044 395.998 471.877C396.003 471.791 396.032 471.708 396.081 471.637C396.131 471.566 396.199 471.511 396.278 471.476C397.013 471.129 398.949 471.984 400.392 472.745C398.348 473.28 396.826 473.306 396.251 472.825Z" fill="#407BFF"/>
<path d="M402.035 471.49L415.018 470.675C415.125 470.664 415.233 470.674 415.336 470.705C415.439 470.736 415.535 470.787 415.618 470.856C415.701 470.924 415.77 471.008 415.821 471.103C415.871 471.198 415.902 471.302 415.913 471.409V471.409L417.248 481.641C417.281 482.18 417.101 482.71 416.746 483.118C416.391 483.525 415.89 483.777 415.352 483.818C410.824 484.018 408.673 483.898 402.93 484.205C399.43 484.419 392.512 485.167 387.677 484.699C382.841 484.232 383.429 479.45 385.526 479.223C390.481 478.662 397.04 475.029 400.138 472.264C400.669 471.805 401.335 471.533 402.035 471.49V471.49Z" fill="black"/>
<path d="M380.531 236.172C382.519 235.471 384.687 235.471 386.675 236.172C387.131 238.115 388.225 239.849 389.781 241.098C391.338 242.347 393.267 243.04 395.263 243.064C396.249 243.114 397.237 243.074 398.215 242.944C408.219 241.608 407.124 226.689 407.124 226.689C403.477 226.949 399.838 226.077 396.706 224.191V224.191C394.047 222.631 391.726 220.556 389.88 218.087L380.531 236.172Z" fill="#EBB376"/>
<path opacity="0.2" d="M380.531 236.172C382.519 235.47 384.687 235.47 386.675 236.172C387.131 238.115 388.225 239.849 389.781 241.098C391.338 242.347 393.267 243.039 395.263 243.064C397.841 236.693 397.507 229.4 396.706 224.191C394.047 222.631 391.726 220.556 389.88 218.087L380.531 236.172Z" fill="black"/>
<path d="M373.558 203.288C378.5 205.425 377.459 210.835 369.044 220.652C364.035 216.204 361.444 206.2 364.155 203.048C366.867 199.896 369.244 201.432 373.558 203.288Z" fill="black"/>
<path d="M393.927 207.87C395.477 218.662 396.919 224.899 392.685 231.484C386.301 241.381 372.143 239.231 367.388 229.107C363.14 220.024 361.31 203.903 370.861 197.518C372.959 196.103 375.384 195.246 377.906 195.029C380.428 194.812 382.963 195.242 385.273 196.278C387.582 197.315 389.589 198.923 391.104 200.951C392.618 202.98 393.59 205.361 393.927 207.87V207.87Z" fill="#EBB376"/>
<path d="M378.621 214.094C378.808 214.962 378.487 215.75 377.913 215.87C377.339 215.99 376.751 215.389 376.577 214.534C376.404 213.68 376.697 212.865 377.272 212.745C377.846 212.624 378.38 213.252 378.621 214.094Z" fill="black"/>
<path d="M368.763 216.151C368.95 217.005 368.63 217.807 368.069 217.927C367.508 218.047 366.894 217.446 366.733 216.591C366.573 215.736 366.867 214.922 367.441 214.815C368.015 214.708 368.643 215.282 368.763 216.151Z" fill="black"/>
<path d="M372.063 215.883C371.579 218.75 370.703 221.537 369.458 224.165C370.141 224.464 370.88 224.611 371.625 224.595C372.371 224.579 373.103 224.4 373.772 224.071L372.063 215.883Z" fill="#D58745"/>
<path d="M387.73 199.308C383.095 202.046 384.818 207.322 394.408 215.897C398.816 210.835 400.125 200.577 397.08 197.812C394.034 195.047 391.777 196.93 387.73 199.308Z" fill="black"/>
<path d="M400.766 215.349C400.56 218.084 399.278 220.625 397.2 222.415C394.422 224.752 391.537 222.642 391.042 219.236C390.602 216.164 391.51 211.222 394.903 210.234C398.295 209.245 401.007 211.997 400.766 215.349Z" fill="#EBB376"/>
<path d="M383.042 208.991C382.967 209.059 382.876 209.105 382.777 209.127C382.679 209.148 382.577 209.143 382.481 209.112C381.827 208.863 381.124 208.77 380.428 208.842C379.732 208.914 379.063 209.148 378.474 209.526C378.359 209.616 378.212 209.657 378.067 209.639C377.922 209.622 377.789 209.547 377.699 209.432C377.609 209.317 377.568 209.171 377.585 209.025C377.603 208.88 377.677 208.748 377.793 208.658V208.658C378.521 208.168 379.355 207.86 380.226 207.758C381.097 207.656 381.98 207.763 382.801 208.07C382.869 208.091 382.932 208.126 382.987 208.172C383.041 208.217 383.086 208.274 383.118 208.337C383.151 208.401 383.17 208.47 383.175 208.541C383.18 208.612 383.171 208.684 383.149 208.751V208.751C383.126 208.836 383.09 208.917 383.042 208.991V208.991Z" fill="black"/>
<path d="M363.408 211.649C363.296 211.633 363.193 211.582 363.114 211.502C363.035 211.381 363.007 211.234 363.034 211.092C363.062 210.95 363.143 210.825 363.261 210.741V210.741C363.987 210.249 364.822 209.939 365.693 209.836C366.565 209.734 367.449 209.843 368.269 210.153C368.336 210.181 368.397 210.222 368.448 210.273C368.498 210.325 368.538 210.386 368.564 210.454C368.59 210.521 368.603 210.593 368.6 210.666C368.598 210.738 368.581 210.809 368.55 210.875C368.491 211.007 368.383 211.112 368.247 211.164C368.112 211.217 367.961 211.213 367.829 211.155C367.165 210.925 366.457 210.853 365.762 210.946C365.066 211.038 364.401 211.293 363.822 211.689C363.754 211.712 363.682 211.719 363.61 211.713C363.539 211.706 363.47 211.684 363.408 211.649Z" fill="black"/>
<path d="M395.864 199.014C395.864 199.014 398.242 194.286 391.991 190.185C385.74 186.085 366.827 189.29 360.055 197.865C353.283 206.44 359.16 211.663 359.16 211.663C358.875 210.243 359.097 208.768 359.788 207.495C360.496 208.935 361.642 210.113 363.06 210.861C365.211 211.823 363.782 211.516 363.782 211.516C363.69 209.256 364.421 207.04 365.838 205.278C367.464 206.871 369.44 208.061 371.609 208.751C372.08 206.886 373.191 205.246 374.747 204.116C374.747 204.116 375.923 207.896 377.726 208.257C377.726 208.257 377.566 205.171 381.733 202.914C381.733 202.914 382.2 205.853 383.376 206.627C383.416 206.734 385.406 200.083 395.864 199.014Z" fill="black"/>
<path d="M376.55 227.704C376.455 227.704 376.362 227.676 376.283 227.624C376.226 227.59 376.176 227.544 376.137 227.491C376.098 227.437 376.07 227.376 376.055 227.311C376.04 227.246 376.038 227.179 376.05 227.113C376.062 227.048 376.087 226.985 376.123 226.929C377.676 224.72 379.938 223.108 382.534 222.361C382.596 222.341 382.662 222.334 382.727 222.34C382.793 222.346 382.856 222.365 382.913 222.396C382.971 222.427 383.021 222.47 383.062 222.521C383.102 222.573 383.132 222.632 383.149 222.695C383.186 222.823 383.172 222.96 383.11 223.078C383.047 223.195 382.941 223.283 382.815 223.323C380.457 224.011 378.397 225.469 376.964 227.464C376.922 227.536 376.862 227.597 376.789 227.639C376.717 227.681 376.634 227.704 376.55 227.704V227.704Z" fill="black"/>
<path d="M377.018 220.385C375.819 220.276 374.692 219.766 373.819 218.937C372.946 218.108 372.379 217.008 372.21 215.817C371.649 212.865 373.225 210.073 375.722 209.592C378.22 209.112 380.704 211.142 381.265 214.094C381.542 215.457 381.334 216.874 380.678 218.101C380.383 218.661 379.968 219.149 379.462 219.531C378.956 219.912 378.373 220.176 377.753 220.304C377.51 220.352 377.265 220.378 377.018 220.385V220.385ZM376.457 210.233C376.257 210.214 376.056 210.214 375.856 210.233C373.746 210.634 372.41 213.052 372.904 215.576C373.385 218.141 375.495 219.93 377.619 219.516C378.139 219.408 378.628 219.186 379.051 218.864C379.474 218.543 379.82 218.132 380.063 217.66C380.643 216.576 380.822 215.323 380.571 214.12C380.433 213.095 379.951 212.146 379.203 211.43C378.456 210.715 377.488 210.274 376.457 210.18V210.233Z" fill="black"/>
<path d="M365.531 222.321C364.51 222.306 363.527 221.933 362.753 221.266C361.69 220.362 360.977 219.115 360.736 217.74C360.175 214.788 361.751 212.01 364.249 211.529C364.873 211.422 365.513 211.456 366.123 211.627C366.733 211.798 367.297 212.102 367.775 212.518C368.837 213.417 369.551 214.66 369.792 216.03C370.061 217.394 369.854 218.809 369.204 220.037C368.91 220.597 368.494 221.083 367.988 221.462C367.483 221.841 366.899 222.103 366.279 222.228C366.034 222.285 365.783 222.317 365.531 222.321ZM361.431 217.62C361.639 218.827 362.263 219.923 363.194 220.719C363.587 221.068 364.054 221.322 364.561 221.462C365.067 221.601 365.599 221.623 366.115 221.525C366.631 221.427 367.118 221.212 367.538 220.896C367.957 220.58 368.299 220.172 368.536 219.704C369.101 218.609 369.283 217.356 369.053 216.146C368.823 214.935 368.194 213.837 367.268 213.025C366.871 212.677 366.401 212.421 365.892 212.278C365.384 212.135 364.85 212.107 364.329 212.197C362.205 212.598 360.883 215.015 361.377 217.54L361.431 217.62Z" fill="black"/>
<path d="M369.445 216.444C369.368 216.445 369.294 216.421 369.231 216.378C369.194 216.35 369.162 216.315 369.138 216.275C369.115 216.235 369.099 216.191 369.093 216.145C369.087 216.099 369.09 216.052 369.102 216.007C369.114 215.962 369.135 215.92 369.164 215.883C369.599 215.38 370.202 215.053 370.861 214.962C371.52 214.871 372.189 215.023 372.744 215.389C372.821 215.439 372.877 215.516 372.9 215.606C372.922 215.695 372.909 215.79 372.864 215.87C372.841 215.912 372.809 215.948 372.771 215.977C372.733 216.006 372.689 216.027 372.643 216.038C372.597 216.049 372.548 216.051 372.501 216.043C372.454 216.034 372.41 216.017 372.37 215.99C371.959 215.717 371.465 215.599 370.975 215.657C370.485 215.716 370.033 215.948 369.698 216.311C369.668 216.35 369.63 216.382 369.586 216.405C369.542 216.428 369.494 216.442 369.445 216.444V216.444Z" fill="black"/>
<path d="M380.918 214.468C380.841 214.467 380.766 214.44 380.705 214.392C380.645 214.343 380.602 214.276 380.584 214.2C380.559 214.112 380.571 214.017 380.616 213.937C380.661 213.857 380.736 213.798 380.825 213.773L390.842 210.968C390.934 210.947 391.03 210.962 391.112 211.009C391.194 211.056 391.255 211.132 391.283 211.222C391.303 211.312 391.289 211.407 391.241 211.486C391.194 211.566 391.118 211.624 391.029 211.649L381.012 214.454L380.918 214.468Z" fill="black"/>
<path opacity="0.2" d="M415.605 353.684L342.998 375.963C342.998 375.963 340.327 355.928 353.403 346.578C372.503 332.874 414.63 329.041 414.63 329.041C414.63 329.041 415.151 340.955 415.605 353.684Z" fill="black"/>
<path d="M401.06 330.644L403.865 313.08L402.743 303.917L466.521 299.656L467.482 309.874C467.482 309.874 475.069 345.723 469.807 355.447C460.457 372.811 421.723 372.13 388.077 372.13C395.383 393.5 410.049 447.595 410.049 447.595L392.458 455.609C392.458 455.609 358.519 393.874 350.812 367.148C344.04 343.546 377.045 336.467 401.06 330.644Z" fill="black"/>
<path d="M414.043 452.43L390.441 462.033L384.938 452.39L411.037 442.345L414.043 452.43Z" fill="#407BFF"/>
<path opacity="0.2" d="M414.043 452.43L390.441 462.033L384.938 452.39L411.037 442.345L414.043 452.43Z" fill="white" fill-opacity="0.6"/>
<path d="M446.526 310.529L468.257 309.233L466.948 301.166L445.698 302.528L446.526 310.529Z" fill="black"/>
<path d="M406.349 305.039L402.743 305.279L403.865 313.08L406.977 312.893L406.349 305.039Z" fill="black"/>
<path d="M409.528 312.746L443.975 310.689L443.334 302.675L408.713 304.892L409.528 312.746Z" fill="black"/>
<path d="M419.652 312.853C418.902 312.855 418.179 312.575 417.627 312.067C417.075 311.559 416.734 310.862 416.674 310.115L416.42 307.203C416.349 306.421 416.59 305.642 417.09 305.037C417.591 304.432 418.31 304.048 419.091 303.971L425.275 303.436C425.669 303.398 426.065 303.44 426.442 303.559C426.818 303.679 427.167 303.873 427.466 304.131C427.765 304.384 428.011 304.693 428.19 305.042C428.369 305.39 428.477 305.771 428.508 306.161L428.762 309.073C428.797 309.466 428.754 309.862 428.635 310.238C428.516 310.614 428.323 310.963 428.067 311.263C427.817 311.567 427.508 311.816 427.159 311.998C426.811 312.179 426.429 312.288 426.037 312.318V311.651V312.318L419.853 312.839L419.652 312.853ZM425.583 304.759H425.449L419.265 305.293C419.048 305.31 418.836 305.369 418.642 305.469C418.448 305.568 418.276 305.705 418.136 305.872C417.995 306.038 417.889 306.231 417.824 306.439C417.759 306.647 417.736 306.866 417.756 307.083L417.996 310.008C418.036 310.445 418.247 310.848 418.584 311.13C418.92 311.408 419.35 311.546 419.786 311.517L425.97 310.983C426.189 310.964 426.401 310.903 426.596 310.802C426.791 310.701 426.964 310.563 427.105 310.395C427.384 310.059 427.523 309.629 427.493 309.193L427.239 306.281C427.22 306.063 427.159 305.85 427.058 305.655C426.957 305.46 426.819 305.287 426.651 305.146C426.354 304.892 425.974 304.754 425.583 304.759Z" fill="white" fill-opacity="0.6"/>
<path d="M424.047 308.806C423.885 308.804 423.73 308.746 423.607 308.641C423.485 308.536 423.404 308.391 423.379 308.231C423.356 308.056 423.404 307.879 423.511 307.739C423.619 307.598 423.778 307.507 423.953 307.483L426.504 307.136C426.591 307.121 426.681 307.123 426.767 307.144C426.853 307.164 426.934 307.202 427.005 307.254C427.076 307.306 427.136 307.373 427.18 307.449C427.225 307.525 427.254 307.609 427.266 307.697C427.289 307.874 427.241 308.053 427.134 308.195C427.026 308.337 426.868 308.432 426.691 308.458L424.127 308.806H424.047Z" fill="white" fill-opacity="0.6"/>
<path opacity="0.2" d="M401.327 248.741C401.327 248.741 407.792 271.594 415.605 287.061C415.605 287.061 403.304 264.128 398.709 246.457L401.327 248.741Z" fill="black"/>
<path d="M401.661 253.002L404.987 248.661H406.777L409.328 251.332L409.581 254.377C406.443 255.78 401.661 254.377 401.661 254.377V253.002Z" fill="#407BFF"/>
<path d="M404.853 249.769C404.783 244.222 404.183 238.694 403.063 233.26L404.853 234.035C406.544 239.488 407.152 245.218 406.643 250.905L404.853 249.769Z" fill="#407BFF"/>
<path d="M402.596 253.135C402.596 253.135 390.027 248.166 388.825 240.019L387.944 241.555C387.944 241.555 390.935 251.853 404.159 254.404L402.596 253.135Z" fill="#407BFF"/>
<path d="M407.832 252.36C409.115 252.155 410.329 251.64 411.369 250.86C412.409 250.081 413.244 249.06 413.802 247.886C416.781 241.034 413.802 230.976 421.175 226.515L425.316 227.985C423.01 229.742 421.325 232.189 420.507 234.97C419.011 240.713 417.315 254.925 407.832 254.391V252.36Z" fill="#407BFF"/>
<path d="M404.867 224.205L398.709 239.324L398.215 242.944L393.847 240.86L386.808 236.666C386.808 236.666 383.683 241.034 388.905 247.846L393.847 243.759L400.779 251.359L402.743 242.009L410.824 244.614C410.824 244.614 414.056 231.07 414.056 227.196L404.867 224.205Z" fill="#407BFF"/>
<path opacity="0.6" d="M414.056 227.197C414.056 231.097 410.81 244.654 410.81 244.654L402.716 242.049L400.766 251.399L393.834 243.799L388.892 247.886C383.67 241.074 386.782 236.707 386.782 236.707L393.834 240.9L398.202 242.984L398.696 239.364L404.84 224.245L414.056 227.197Z" fill="white" fill-opacity="0.6"/>
<path opacity="0.2" d="M410.824 244.654L402.729 242.049L400.779 251.359L400.352 239.658L410.824 244.654Z" fill="black"/>
<path opacity="0.2" d="M400.779 251.359L393.847 243.759L388.905 247.846L392.432 241.542L400.779 251.359Z" fill="black"/>
<path d="M367.121 265.957L356.769 264.795C355.334 263.633 353.638 262.835 351.827 262.471C346.744 262.383 341.663 262.777 336.654 263.647C335.318 264.168 335.799 274.893 336.654 275.08C337.509 275.267 350.799 275.414 352.001 275.08C353.203 274.746 356.088 271.5 356.088 271.5L365.157 273.103L367.121 265.957Z" fill="#EBB376"/>
<path d="M433.89 228.532C429.616 229.4 409.848 266.946 409.848 266.946L358.973 264.462L358.212 273.17C358.212 273.17 403.798 283.094 414.069 281.184C424.34 279.274 442.866 247.218 443.975 243.692C446.499 235.665 436.762 227.944 433.89 228.532Z" fill="#407BFF"/>
<path opacity="0.6" d="M433.89 228.532C429.616 229.4 409.848 266.946 409.848 266.946L358.973 264.462L358.212 273.17C358.212 273.17 403.798 283.094 414.069 281.184C424.34 279.274 442.866 247.218 443.975 243.692C446.499 235.665 436.762 227.944 433.89 228.532Z" fill="white" fill-opacity="0.6"/>
<path d="M153.708 277.671V273.304H150.783L153.708 271.594H151.518L154.443 269.684H157.221V267.48H154.002L157.221 266.198V261.43H154.002V258.318H150.783L154.002 257.236V255.018H151.691L153.575 253.135L155.218 251.492H205.145V253.736H208.444L204.771 255.379V257.236H211.503V260.668H214.481L211.503 262.164V266.011H209.392V267.841H205.145V273.304H207.522L205.572 275.254V277.685L153.708 277.671Z" fill="#407BFF"/>
<path opacity="0.7" d="M153.708 277.671V273.304H150.783L153.708 271.594H151.518L154.443 269.684H157.221V267.48H154.002L157.221 266.198V261.43H154.002V258.318H150.783L154.002 257.236V255.018H151.691L153.575 253.135L155.218 251.492H205.145V253.736H208.444L204.771 255.379V257.236H211.503V260.668H214.481L211.503 262.164V266.011H209.392V267.841H205.145V273.304H207.522L205.572 275.254V277.685L153.708 277.671Z" fill="white" fill-opacity="0.6"/>
<path opacity="0.1" d="M153.708 277.671V273.304H150.783L153.708 271.594H151.518L154.443 269.684H157.221V267.48H154.002L157.221 266.198V261.43H154.002V258.318H150.783L154.002 257.236V255.018H151.691L153.575 253.135L155.218 251.492H181.517V253.736H184.816L181.143 255.379V257.236H187.875V260.668H190.853L187.875 262.164V266.011H185.764V267.841H181.517V273.304H183.894L181.944 275.254V277.685L153.708 277.671Z" fill="black"/>
<path opacity="0.1" d="M204.771 257.236H181.143L204.771 256.381V257.236Z" fill="black"/>
<path opacity="0.1" d="M205.145 267.841H181.517L181.41 269.497L205.145 267.841Z" fill="black"/>
<path opacity="0.1" d="M209.392 266.011H185.764L209.392 266.839V266.011Z" fill="black"/>
<path opacity="0.1" d="M205.145 273.304H181.517L205.145 272.422V273.304Z" fill="black"/>
<path opacity="0.1" d="M205.572 275.254H181.944V276.149L205.572 275.254Z" fill="black"/>
<path opacity="0.1" d="M211.503 260.668H187.875L211.503 259.92V260.668Z" fill="black"/>
<path opacity="0.1" d="M205.145 253.736H181.517L205.145 252.908V253.736Z" fill="black"/>
<path opacity="0.1" d="M154.002 255.018H177.964L154.002 255.753V255.018Z" fill="black"/>
<path opacity="0.1" d="M181.143 257.236H154.002L178.605 258.037L181.143 257.236Z" fill="black"/>
<path opacity="0.1" d="M187.875 260.668L154.002 261.43V260.668H187.875Z" fill="black"/>
<path opacity="0.1" d="M187.875 262.164H171.125L187.875 262.992V262.164Z" fill="black"/>
<path opacity="0.1" d="M157.221 266.198L181.517 266.011L157.221 265.463V266.198Z" fill="black"/>
<path opacity="0.1" d="M157.221 267.48H181.944L157.221 268.308V267.48Z" fill="black"/>
<path opacity="0.1" d="M153.708 271.594H181.143V272.422L153.708 271.594Z" fill="black"/>
<path opacity="0.1" d="M153.708 273.304H173.596L153.708 273.851V273.304Z" fill="black"/>
<path d="M293.472 278.513L294.568 274.372H339.646L360.402 276.442L361.19 278.513H293.472Z" fill="black"/>
<path opacity="0.4" d="M339.646 274.372V278.513H293.472L294.568 274.372H339.646Z" fill="black"/>
<path d="M196.423 228.399L206.293 273.143C206.471 273.863 206.881 274.504 207.461 274.966C208.041 275.427 208.758 275.684 209.499 275.695H241.408C241.745 275.687 242.075 275.601 242.372 275.444C242.67 275.287 242.928 275.064 243.124 274.791C243.321 274.517 243.452 274.202 243.506 273.87C243.561 273.538 243.537 273.198 243.438 272.876L233.581 228.479C233.381 227.8 232.952 227.212 232.368 226.813C231.784 226.414 231.08 226.229 230.375 226.288H198.466C197.011 226.328 196.102 226.983 196.423 228.399Z" fill="black"/>
<path opacity="0.4" d="M198.253 228.399L208.11 273.143C208.287 273.863 208.698 274.504 209.278 274.966C209.858 275.427 210.574 275.684 211.316 275.695H241.408C241.744 275.684 242.072 275.597 242.369 275.439C242.665 275.282 242.921 275.058 243.117 274.785C243.314 274.513 243.445 274.199 243.5 273.868C243.556 273.537 243.535 273.198 243.438 272.876L233.581 228.479C233.381 227.8 232.952 227.212 232.368 226.813C231.784 226.414 231.08 226.229 230.376 226.288H200.35C198.84 226.328 197.932 226.983 198.253 228.399Z" fill="white" fill-opacity="0.6"/>
<path d="M211.583 272.783V276.937C211.583 277.992 212.838 278.433 213.88 278.433H287.716C288.771 278.433 290.053 277.992 290.053 276.937V272.783H211.583Z" fill="black"/>
<path opacity="0.2" d="M290.053 272.783V276.937C290.053 277.992 288.797 278.433 287.756 278.433H213.933C212.865 278.433 211.583 277.992 211.583 276.937V272.783H290.053Z" fill="white" fill-opacity="0.6"/>
<path opacity="0.4" d="M290.053 272.783V276.937C290.053 277.992 288.798 278.433 287.756 278.433H253.776C252.708 278.433 251.439 277.992 251.439 276.937V272.783H290.053Z" fill="black"/>
<path d="M241.648 269.497L232.686 229.2H200.042L208.925 269.497H241.648Z" fill="#407BFF"/>
<path d="M330.59 254.524C330.656 255.03 330.611 255.543 330.46 256.03C330.31 256.517 330.056 256.966 329.716 257.346C329.377 257.726 328.959 258.028 328.493 258.233C328.026 258.438 327.52 258.539 327.011 258.531H257.957C256.87 258.51 255.828 258.09 255.03 257.351C254.233 256.613 253.734 255.607 253.629 254.524L249.529 210.314C249.476 209.867 249.503 209.415 249.609 208.978C249.805 208.203 250.257 207.517 250.893 207.032C251.528 206.547 252.309 206.291 253.108 206.307H322.162C323.249 206.328 324.291 206.748 325.089 207.487C325.887 208.225 326.385 209.231 326.49 210.314L330.59 254.524Z" fill="black"/>
<path opacity="0.4" d="M326.757 258.491H257.957C256.87 258.47 255.828 258.05 255.03 257.311C254.233 256.573 253.734 255.566 253.629 254.484L249.529 210.274C249.476 209.827 249.503 209.375 249.609 208.938H318.422C319.508 208.965 320.546 209.387 321.343 210.124C322.14 210.862 322.64 211.865 322.75 212.945L326.85 257.155C326.9 257.603 326.868 258.055 326.757 258.491V258.491Z" fill="black"/>
<path d="M279.314 231.377H293.606L289.799 272.275L312.385 275.668V278.513H264.809V275.668L274.559 272.275L279.314 231.377Z" fill="black"/>
<path opacity="0.1" d="M293.606 231.377L283.027 277.872L274.559 277.618L279.314 231.377H293.606Z" fill="white" fill-opacity="0.6"/>
<path d="M245.949 485.167H238.042L223.804 287.128H234.316L245.949 485.167Z" fill="black"/>
<path opacity="0.1" d="M245.963 485.167H238.042L224.512 296.958L223.804 287.435H234.316L234.877 296.958L245.963 485.167Z" fill="white" fill-opacity="0.6"/>
<path opacity="0.2" d="M234.877 296.491H224.512L223.804 287.435H234.316L234.877 296.491Z" fill="black"/>
<path d="M342.825 485.167H334.905L333.622 287.128H344.121L342.825 485.167Z" fill="black"/>
<path opacity="0.1" d="M344.121 287.435L343.92 319.397L342.838 485.167H334.905L333.823 319.397L333.622 287.435H344.121Z" fill="white" fill-opacity="0.6"/>
<path opacity="0.2" d="M344.121 287.435L343.92 319.745H333.823L333.622 287.435H344.121Z" fill="black"/>
<path d="M426.878 485.167H418.971L404.733 287.128H415.245L426.878 485.167Z" fill="black"/>
<path opacity="0.1" d="M426.892 485.167H418.971L405.428 296.958L404.733 287.435H415.245L415.806 296.958L426.892 485.167Z" fill="white" fill-opacity="0.6"/>
<path opacity="0.2" d="M415.806 296.491H405.428L404.733 287.435H415.245L415.806 296.491Z" fill="black"/>
<path d="M155.378 485.167H147.471L159.104 287.128H169.603L155.378 485.167Z" fill="black"/>
<path opacity="0.1" d="M169.603 287.435L168.908 296.958L155.378 485.167H147.471L158.53 296.958L159.104 287.435H169.603Z" fill="white" fill-opacity="0.6"/>
<path opacity="0.2" d="M159.104 287.435H169.603L168.908 296.491H158.53L159.104 287.435Z" fill="black"/>
<path d="M150.783 282.159H423.566V289.185C423.566 289.95 423.262 290.684 422.721 291.225C422.18 291.766 421.446 292.07 420.681 292.07H153.601C152.836 292.07 152.102 291.766 151.561 291.225C151.02 290.684 150.716 289.95 150.716 289.185V282.159H150.783Z" fill="#407BFF"/>
<path opacity="0.4" d="M150.783 282.159H423.566V289.185C423.566 289.95 423.262 290.684 422.721 291.225C422.18 291.766 421.446 292.07 420.681 292.07H153.601C152.836 292.07 152.102 291.766 151.561 291.225C151.02 290.684 150.716 289.95 150.716 289.185V282.159H150.783Z" fill="white" fill-opacity="0.6"/>
<path opacity="0.2" d="M423.579 282.159H150.783V287.114H423.579V282.159Z" fill="black"/>
<path d="M428.481 283.455H145.868C145.129 283.451 144.421 283.156 143.898 282.633C143.375 282.11 143.08 281.402 143.076 280.663C143.076 279.923 143.371 279.213 143.894 278.689C144.418 278.166 145.128 277.872 145.868 277.872H428.481C429.222 277.872 429.932 278.166 430.455 278.689C430.979 279.213 431.273 279.923 431.273 280.663C431.269 281.402 430.974 282.11 430.451 282.633C429.928 283.156 429.22 283.451 428.481 283.455V283.455Z" fill="#407BFF"/>
<path opacity="0.4" d="M428.481 283.455H145.868C145.129 283.451 144.421 283.156 143.898 282.633C143.375 282.11 143.08 281.402 143.076 280.663C143.076 279.923 143.371 279.213 143.894 278.689C144.418 278.166 145.128 277.872 145.868 277.872H428.481C429.222 277.872 429.932 278.166 430.455 278.689C430.979 279.213 431.273 279.923 431.273 280.663C431.269 281.402 430.974 282.11 430.451 282.633C429.928 283.156 429.22 283.451 428.481 283.455V283.455Z" fill="white" fill-opacity="0.6"/>
<path d="M360.122 265.263V266.198L356.903 267.48H360.122V269.684H357.344L354.405 271.594H356.609L353.684 273.304H356.609V277.671L408.473 277.685V275.254L410.423 273.304H408.032V267.841H412.293V266.011H414.403V265.263H360.122Z" fill="#407BFF"/>
<path opacity="0.9" d="M360.122 265.263V266.198L356.903 267.48H360.122V269.684H357.344L354.405 271.594H356.609L353.684 273.304H356.609V277.671L408.473 277.685V275.254L410.423 273.304H408.032V267.841H412.293V266.011H414.403V265.263H360.122Z" fill="white" fill-opacity="0.6"/>
<path opacity="0.1" d="M360.122 265.263V266.198L356.903 267.48H360.122V269.684H357.344L354.405 271.594H356.609L353.684 273.304H356.609V277.671L384.845 277.685V275.254L386.795 273.304H384.404V267.841H388.665V266.011H390.775V265.263H360.122Z" fill="black"/>
<path opacity="0.1" d="M408.032 267.841H384.404L384.311 269.497L408.032 267.841Z" fill="black"/>
<path opacity="0.1" d="M412.293 266.011H388.665L412.293 266.839V266.011Z" fill="black"/>
<path opacity="0.1" d="M408.032 273.304H384.404L408.032 272.422V273.304Z" fill="black"/>
<path opacity="0.1" d="M408.473 275.254H384.845V276.149L408.473 275.254Z" fill="black"/>
<path opacity="0.1" d="M360.122 266.198L384.404 266.011L360.122 265.463V266.198Z" fill="black"/>
<path opacity="0.1" d="M360.122 267.48H384.845L360.122 268.308V267.48Z" fill="black"/>
<path opacity="0.1" d="M356.609 271.594H384.044V272.422L356.609 271.594Z" fill="black"/>
<path opacity="0.1" d="M356.609 273.304H376.484L356.609 273.851V273.304Z" fill="black"/>
</svg>
