<svg width="34" height="34" viewBox="0 0 34 34" fill="none" xmlns="http://www.w3.org/2000/svg">
<circle cx="16.645" cy="16.645" r="16.645" fill="white"/>
<path d="M13.8652 14.3262C13.834 14.3262 13.8145 14.3223 13.8066 14.3145C13.6035 14.2793 13.4102 14.2559 13.2266 14.2441C13.0469 14.2285 12.8691 14.2168 12.6934 14.209C12.8379 14.377 12.959 14.582 13.0566 14.8242C13.1582 15.0625 13.209 15.3457 13.209 15.6738C13.209 15.9863 13.1602 16.2695 13.0625 16.5234C12.9688 16.7734 12.8398 16.998 12.6758 17.1973C12.5117 17.3926 12.3184 17.5625 12.0957 17.707C11.877 17.8477 11.6426 17.9648 11.3926 18.0586C11.1465 18.1523 10.8906 18.2207 10.625 18.2637C10.3594 18.3105 10.0996 18.334 9.8457 18.334C9.18164 18.3145 8.58789 18.2031 8.06445 18C7.54102 17.793 7.0957 17.5039 6.72852 17.1328C6.36133 16.7617 6.08008 16.3125 5.88477 15.7852C5.69336 15.2578 5.59766 14.6602 5.59766 13.9922C5.59766 13.3984 5.66016 12.8711 5.78516 12.4102C5.91016 11.9453 6.08008 11.5391 6.29492 11.1914C6.51367 10.8398 6.76953 10.5449 7.0625 10.3066C7.35547 10.0645 7.66602 9.86914 7.99414 9.7207C8.32617 9.56836 8.66992 9.45898 9.02539 9.39258C9.38086 9.32227 9.73047 9.28711 10.0742 9.28711C10.418 9.28711 10.7266 9.32422 11 9.39844C11.2734 9.46875 11.5176 9.55859 11.7324 9.66797C11.9473 9.77734 12.1309 9.90039 12.2832 10.0371C12.4395 10.1699 12.5684 10.2969 12.6699 10.418L12.9922 9.49219C13.0156 9.42969 13.0547 9.38086 13.1094 9.3457C13.1641 9.30664 13.2207 9.28711 13.2793 9.28711C13.377 9.28711 13.4531 9.32227 13.5078 9.39258C13.5625 9.45898 13.5898 9.52734 13.5898 9.59766C13.5898 9.60938 13.5879 9.625 13.584 9.64453C13.5801 9.66016 13.5742 9.67773 13.5664 9.69727L12.6348 12.4219C12.6152 12.4805 12.5781 12.5293 12.5234 12.5684C12.4688 12.6035 12.4082 12.6211 12.3418 12.6211C12.252 12.6211 12.1777 12.5898 12.1191 12.5273C12.0605 12.4609 12.0312 12.3887 12.0312 12.3105C12.0312 12.2988 12.0332 12.2852 12.0371 12.2695C12.041 12.2539 12.0469 12.2363 12.0547 12.2168L12.4297 11.1211C12.332 10.9688 12.2129 10.8223 12.0723 10.6816C11.9355 10.5371 11.7832 10.4102 11.6152 10.3008C11.4512 10.1914 11.2773 10.1035 11.0938 10.0371C10.9102 9.9707 10.7266 9.9375 10.543 9.9375C10.0742 9.9375 9.66016 10.0391 9.30078 10.2422C8.94141 10.4414 8.63867 10.7168 8.39258 11.0684C8.15039 11.416 7.9668 11.8223 7.8418 12.2871C7.7168 12.752 7.6543 13.248 7.6543 13.7754C7.6543 14.0098 7.66797 14.2695 7.69531 14.5547C7.72656 14.8398 7.77539 15.1289 7.8418 15.4219C7.91211 15.7148 8.00195 15.998 8.11133 16.2715C8.22461 16.5449 8.36328 16.7891 8.52734 17.0039C8.69141 17.2188 8.88281 17.3906 9.10156 17.5195C9.32031 17.6484 9.57227 17.7129 9.85742 17.7129C10.334 17.7129 10.7441 17.6543 11.0879 17.5371C11.4316 17.4199 11.7129 17.2656 11.9316 17.0742C12.1543 16.8828 12.3184 16.6641 12.4238 16.418C12.5293 16.1719 12.582 15.9199 12.582 15.6621C12.582 15.4355 12.5508 15.2402 12.4883 15.0762C12.4258 14.9082 12.3516 14.7695 12.2656 14.6602C12.1797 14.5469 12.0918 14.459 12.002 14.3965C11.9121 14.334 11.8418 14.291 11.791 14.2676C11.584 14.2949 11.3984 14.3301 11.2344 14.373C11.0742 14.416 10.9375 14.457 10.8242 14.4961C10.7148 14.5352 10.6289 14.5703 10.5664 14.6016C10.5078 14.6289 10.4766 14.6426 10.4727 14.6426C10.4297 14.6738 10.3809 14.6895 10.3262 14.6895C10.2363 14.6895 10.1621 14.6582 10.1035 14.5957C10.0449 14.5293 10.0156 14.457 10.0156 14.3789C10.0156 14.2656 10.0684 14.1758 10.1738 14.1094C10.1855 14.1055 10.248 14.0762 10.3613 14.0215C10.4746 13.9668 10.6328 13.9082 10.8359 13.8457C11.043 13.7793 11.293 13.7207 11.5859 13.6699C11.8828 13.6191 12.2188 13.5938 12.5938 13.5938C12.9961 13.5938 13.4375 13.6348 13.918 13.7168C13.9883 13.7285 14.0469 13.7637 14.0938 13.8223C14.1445 13.877 14.1699 13.9414 14.1699 14.0156C14.1699 14.1172 14.1348 14.1953 14.0645 14.25C13.9941 14.3008 13.9277 14.3262 13.8652 14.3262ZM21.7754 9.41016C21.7754 9.48047 21.7559 9.54297 21.7168 9.59766C21.6816 9.65234 21.6309 9.68945 21.5645 9.70898C21.3926 9.75586 21.2227 9.79883 21.0547 9.83789C20.8906 9.87695 20.7246 9.91406 20.5566 9.94922C20.6582 10.6367 20.748 11.293 20.8262 11.918C20.8613 12.1836 20.8945 12.457 20.9258 12.7383C20.957 13.0195 20.9844 13.291 21.0078 13.5527C21.0352 13.8145 21.0566 14.0605 21.0723 14.291C21.0879 14.5215 21.0957 14.7188 21.0957 14.8828C21.0957 15.1953 21.0508 15.4961 20.9609 15.7852C20.875 16.0742 20.752 16.3457 20.5918 16.5996C20.4355 16.8496 20.2461 17.0781 20.0234 17.2852C19.8047 17.4922 19.5625 17.6699 19.2969 17.8184C19.0352 17.9629 18.7559 18.0742 18.459 18.1523C18.1621 18.2344 17.8574 18.2754 17.5449 18.2754C17.1816 18.2754 16.8262 18.209 16.4785 18.0762C16.1309 17.9473 15.8223 17.7676 15.5527 17.5371C15.2832 17.3027 15.0645 17.0254 14.8965 16.7051C14.7324 16.3848 14.6504 16.0332 14.6504 15.6504C14.6504 15.3535 14.707 15.0605 14.8203 14.7715C14.9336 14.4824 15.1055 14.2109 15.3359 13.957C15.4023 13.8906 15.4785 13.8574 15.5645 13.8574C15.6543 13.8574 15.7285 13.8887 15.7871 13.9512C15.8457 14.0137 15.875 14.084 15.875 14.1621C15.875 14.248 15.8477 14.3203 15.793 14.3789C15.6172 14.5703 15.4863 14.7754 15.4004 14.9941C15.3145 15.209 15.2715 15.4316 15.2715 15.6621C15.2715 15.916 15.3223 16.1543 15.4238 16.377C15.5254 16.5996 15.6621 16.793 15.834 16.957C16.0059 17.1211 16.2051 17.25 16.4316 17.3438C16.6582 17.4375 16.8965 17.4844 17.1465 17.4844C17.4824 17.4844 17.7734 17.4297 18.0195 17.3203C18.2695 17.2109 18.4766 17.0605 18.6406 16.8691C18.8047 16.6738 18.9258 16.4414 19.0039 16.1719C19.0859 15.9023 19.127 15.6074 19.127 15.2871C19.127 15.0293 19.1113 14.7441 19.0801 14.4316C19.0527 14.1152 19.0176 13.793 18.9746 13.4648C18.9316 13.1328 18.8828 12.8027 18.8281 12.4746C18.7773 12.1465 18.7285 11.8379 18.6816 11.5488C18.6348 11.2598 18.5938 11 18.5586 10.7695C18.5273 10.5391 18.5078 10.3574 18.5 10.2246C18.3555 10.2324 18.2109 10.2383 18.0664 10.2422C17.9258 10.2461 17.7832 10.248 17.6387 10.248C17.5527 10.2559 17.4785 10.2285 17.416 10.166C17.3574 10.1035 17.3281 10.0312 17.3281 9.94922C17.3281 9.86328 17.3555 9.79102 17.4102 9.73242C17.4688 9.66992 17.541 9.63867 17.627 9.63867C18.9199 9.61914 20.1758 9.44531 21.3945 9.11719C21.4062 9.10938 21.4199 9.10547 21.4355 9.10547C21.4512 9.10547 21.4648 9.10547 21.4766 9.10547C21.5664 9.10547 21.6387 9.13672 21.6934 9.19922C21.748 9.26172 21.7754 9.33203 21.7754 9.41016ZM27.1836 9.81445C27.1836 9.89258 27.1562 9.96094 27.1016 10.0195C27.0469 10.0742 26.9785 10.1055 26.8965 10.1133C26.752 10.1289 26.6074 10.1426 26.4629 10.1543C26.3184 10.1621 26.1699 10.1699 26.0176 10.1777L25.8301 17.4023C25.9785 17.4141 26.1289 17.4258 26.2812 17.4375C26.4375 17.4492 26.5938 17.4609 26.75 17.4727C26.8398 17.4922 26.9082 17.5332 26.9551 17.5957C27.002 17.6543 27.0254 17.7246 27.0254 17.8066C27.0176 17.8926 26.9824 17.959 26.9199 18.0059C26.8613 18.0566 26.793 18.082 26.7148 18.082H26.6914C26.3789 18.0508 26.0664 18.0273 25.7539 18.0117C25.4453 17.9961 25.1348 17.9883 24.8223 17.9883C24.5137 17.9883 24.207 17.9961 23.9023 18.0117C23.6016 18.0273 23.2988 18.0508 22.9941 18.082H22.9707C22.8809 18.082 22.8066 18.0527 22.748 17.9941C22.6895 17.9316 22.6602 17.8613 22.6602 17.7832C22.6602 17.7051 22.6855 17.6367 22.7363 17.5781C22.791 17.5195 22.8574 17.4844 22.9355 17.4727C23.0801 17.4609 23.2246 17.4492 23.3691 17.4375C23.5176 17.4258 23.6641 17.4141 23.8086 17.4023L23.9434 10.1133C23.6074 10.0898 23.2676 10.0547 22.9238 10.0078C22.8457 9.99609 22.7812 9.96094 22.7305 9.90234C22.6836 9.84375 22.6602 9.7793 22.6602 9.70898C22.6602 9.60742 22.6953 9.53125 22.7656 9.48047C22.8359 9.42578 22.9043 9.39844 22.9707 9.39844H23.0059C23.4199 9.45703 23.8281 9.5 24.2305 9.52734C24.6328 9.55078 25.0332 9.5625 25.4316 9.5625C25.6738 9.5625 25.9121 9.55859 26.1465 9.55078C26.3809 9.54297 26.6152 9.52734 26.8496 9.50391H26.873C26.9629 9.50391 27.0371 9.53516 27.0957 9.59766C27.1543 9.66016 27.1836 9.73242 27.1836 9.81445Z" fill="#407BFF" fill-opacity="0.8"/>
</svg>
