<svg width="34" height="34" viewBox="0 0 34 34" fill="none" xmlns="http://www.w3.org/2000/svg">
<circle cx="16.645" cy="16.645" r="16.145" fill="white" stroke="white"/>
<circle cx="16.561" cy="16.729" r="15.3884" fill="white" stroke="white"/>
<path d="M8.41016 11V5.6582H8.48828L9.25977 6.9082V11H8.41016ZM8.41016 4.71094V4.16406H9.14258L12.7559 9.95508V11H12.3359L8.41016 4.71094ZM11.9062 7.73828V4.16406H12.7559V8.98828H12.6777L11.9062 7.73828ZM19.875 26V19.1641H20.7246V26H19.875ZM21.2129 26V25.1602C21.877 25.1602 22.3229 25.056 22.5508 24.8477C22.7461 24.6654 22.8438 24.4082 22.8438 24.0762V21.0879C22.8438 20.515 22.515 20.1699 21.8574 20.0527C21.6751 20.0202 21.4603 20.0039 21.2129 20.0039V19.1641C22.3717 19.1641 23.1302 19.5026 23.4883 20.1797C23.6315 20.4401 23.7031 20.7428 23.7031 21.0879V24.0762C23.7031 25.3001 22.9577 25.9414 21.4668 26C21.3822 26 21.2975 26 21.2129 26Z" fill="#407BFF" fill-opacity="0.8"/>
</svg>
