<svg width="1054" height="196" viewBox="0 0 1054 196" fill="none" xmlns="http://www.w3.org/2000/svg">
<rect width="1054" height="196" fill="#EBEBEB"/>
<path d="M80.5578 84.0001C80.3333 83.9969 80.1109 84.0484 79.9062 84.1509C79.7016 84.2534 79.5195 84.4046 79.373 84.5937C79.2264 84.7828 79.1189 85.0053 79.0579 85.2455C78.9969 85.4858 78.9839 85.7379 79.0199 85.9844L85.5484 130.059C85.6297 130.598 85.8794 131.088 86.2534 131.443C86.6275 131.798 87.1021 131.995 87.5939 132H118.914C119.282 132.005 119.64 131.863 119.923 131.599C120.205 131.336 120.393 130.968 120.451 130.563L126.98 85.9929C127.016 85.7465 127.003 85.4943 126.942 85.2541C126.881 85.0139 126.773 84.7915 126.627 84.6024C126.48 84.4134 126.298 84.2623 126.094 84.1598C125.889 84.0573 125.667 84.0059 125.442 84.0091L80.5578 84.0001ZM108.048 115.854H98.0516L95.3449 100.128H110.47L108.048 115.854Z" fill="#2684FF"/>
<path d="M124.864 100.106H110.442L108.022 115.82H98.0336L86.2395 131.388C86.6133 131.748 87.0899 131.947 87.5841 131.952H118.887C119.255 131.957 119.613 131.815 119.895 131.552C120.177 131.288 120.365 130.921 120.423 130.517L124.864 100.106Z" fill="url(#paint0_linear)"/>
<g clip-path="url(#clip0)">
<path d="M242.412 106.672L220.801 86.263L218.707 84.2854L202.439 99.6491L195 106.672C194.628 107.025 194.42 107.503 194.42 108C194.42 108.498 194.628 108.975 195 109.328L209.862 123.364L218.707 131.715L234.973 116.351L235.227 116.114L242.412 109.338C242.598 109.164 242.746 108.956 242.847 108.727C242.948 108.498 243 108.253 243 108.005C243 107.758 242.948 107.512 242.847 107.283C242.746 107.055 242.598 106.847 242.412 106.672ZM218.707 115.013L211.282 108L218.707 100.987L226.131 108L218.707 115.013Z" fill="#2684FF"/>
<path d="M218.707 100.987C216.372 98.7823 215.055 95.7941 215.045 92.6754C215.035 89.5567 216.332 86.561 218.654 84.3425L202.405 99.6808L211.248 108.032L218.707 100.987Z" fill="url(#paint1_linear)"/>
<path d="M226.151 107.981L218.707 115.013C221.051 117.227 222.368 120.23 222.368 123.362C222.368 126.493 221.051 129.496 218.707 131.71L235 116.332L226.151 107.981Z" fill="url(#paint2_linear)"/>
</g>
<g clip-path="url(#clip1)">
<path d="M389.297 128.249C387.245 129.919 383.994 130.656 380.595 130.656C369.796 130.656 363.692 122.628 363.692 109.851C363.692 97.5011 369.796 88.8564 380.499 88.8564C383.698 88.8564 386.898 89.6002 389.251 91.6631V97.038C386.898 95.1856 384.301 94.2313 380.499 94.2313C372.797 94.2313 368.193 100.546 368.193 109.851C368.193 119.155 372.945 125.351 380.749 125.351C383.71 125.384 386.634 124.537 389.274 122.881L389.297 128.249ZM392.44 114.552C392.44 105.29 396.839 98.5607 404.341 98.5607C411.844 98.5607 416.146 105.29 416.146 114.552C416.146 123.814 411.793 130.691 404.341 130.691C396.89 130.691 392.44 123.814 392.44 114.552ZM396.64 114.552C396.64 120.418 398.993 125.73 404.341 125.73C409.69 125.73 411.946 120.418 411.946 114.552C411.946 108.686 409.673 103.501 404.347 103.501C399.021 103.501 396.651 108.686 396.651 114.552H396.64ZM442.416 130.052H438.114V111.409C438.114 105.851 436.312 103.381 432.214 103.381C428.235 103.381 425.462 106.651 425.462 112.889V130.052H421.159V99.1782H425.462V104.244C426.227 102.491 427.37 101.033 428.764 100.03C430.158 99.0269 431.749 98.5185 433.362 98.5607C439.114 98.5607 442.416 103.472 442.416 111.963V130.052ZM454.392 99.1782H460.842V104.09H454.392V130.052H450.191V104.09H446.139V99.1782H450.191V95.782C450.191 90.0422 452.794 86.1479 458.148 86.1479C459.129 86.1412 460.105 86.3065 461.047 86.6391V91.5509C460.157 91.3419 459.253 91.2386 458.347 91.2421C455.699 91.2421 454.369 93.1577 454.369 95.9364L454.392 99.1782ZM472.176 130.235C468.072 130.235 465.475 127.828 465.475 122.144V86.2742H469.777V121.527C469.777 124.334 471.278 125.295 473.13 125.295C473.548 125.303 473.965 125.282 474.381 125.232V129.989C473.657 130.181 472.916 130.263 472.176 130.235ZM478.024 99.1782H482.327V117.822C482.327 123.379 484.128 125.849 488.226 125.849C492.205 125.849 494.978 122.579 494.978 116.341V99.1782H499.292V130.052H494.99V124.986C494.224 126.739 493.082 128.198 491.688 129.201C490.294 130.204 488.702 130.712 487.089 130.67C481.338 130.67 478.035 125.758 478.035 117.275L478.024 99.1782ZM517.736 130.67C508.38 130.67 504.283 124.004 504.283 114.531C504.283 105.206 508.483 98.5396 516.087 98.5396C523.789 98.5396 526.886 105.149 526.886 114.531V116.938H508.636C509.239 122.186 511.99 125.583 517.889 125.583C520.484 125.58 523.058 125.014 525.494 123.913V128.824C523.436 130.172 520.288 130.67 517.736 130.67ZM508.585 112.426H522.538C522.288 106.686 520.185 103.409 515.889 103.409C511.336 103.374 509.034 107.016 508.585 112.391V112.426ZM553.247 130.052H548.945V111.409C548.945 105.851 547.143 103.381 543.045 103.381C539.066 103.381 536.293 106.651 536.293 112.889V130.052H531.99V99.1782H536.293V104.244C537.058 102.491 538.201 101.033 539.595 100.03C540.989 99.0269 542.58 98.5185 544.193 98.5607C549.945 98.5607 553.247 103.472 553.247 111.963V130.052ZM576.908 129.245C575.408 130.235 573.106 130.649 570.804 130.649C561.903 130.649 557.731 123.983 557.731 114.51C557.731 105.185 561.881 98.5186 570.804 98.5186C572.854 98.4356 574.891 98.9425 576.755 99.9991V104.911C574.99 103.884 573.056 103.377 571.105 103.43C564.603 103.43 561.954 108.497 561.954 114.482C561.954 120.467 564.654 125.604 571.202 125.604C573.135 125.667 575.062 125.291 576.885 124.495L576.908 129.245ZM593.76 130.67C584.405 130.67 580.307 124.004 580.307 114.531C580.307 105.206 584.507 98.5396 592.112 98.5396C599.813 98.5396 602.911 105.149 602.911 114.531V116.938H584.655C585.257 122.186 588.008 125.583 593.908 125.583C596.502 125.58 599.076 125.014 601.513 123.913V128.824C599.461 130.172 596.312 130.67 593.76 130.67ZM584.609 112.426H598.563C598.313 106.686 596.21 103.409 591.913 103.409C587.36 103.374 585.058 107.016 584.609 112.391V112.426Z" fill="#253858"/>
<path d="M314.137 120.902C313.768 121.646 313.353 122.509 313 123.197C312.849 123.513 312.804 123.89 312.875 124.247C312.946 124.604 313.128 124.912 313.381 125.105L320.77 130.719C320.898 130.817 321.041 130.882 321.19 130.911C321.339 130.94 321.492 130.932 321.638 130.888C321.785 130.843 321.923 130.763 322.044 130.652C322.165 130.541 322.267 130.402 322.344 130.242C322.64 129.631 323.021 128.838 323.436 127.989C326.363 122.025 329.307 122.755 334.615 125.884L341.942 130.185C342.079 130.266 342.228 130.312 342.38 130.32C342.532 130.329 342.684 130.299 342.826 130.234C342.969 130.168 343.099 130.068 343.21 129.939C343.321 129.811 343.409 129.656 343.47 129.484L346.989 119.66C347.108 119.323 347.115 118.941 347.009 118.597C346.903 118.254 346.691 117.975 346.42 117.822C344.874 116.924 341.799 115.134 339.031 113.485C329.074 107.514 320.611 107.9 314.137 120.902Z" fill="url(#paint3_linear)"/>
<path d="M347.267 98.6097C347.636 97.8659 348.051 97.0028 348.403 96.3152C348.555 95.9988 348.6 95.6217 348.529 95.2648C348.458 94.9079 348.276 94.5998 348.023 94.4066L340.634 88.7931C340.505 88.6855 340.359 88.612 340.205 88.577C340.052 88.5421 339.894 88.5465 339.742 88.5899C339.591 88.6333 339.447 88.7149 339.322 88.8295C339.197 88.9442 339.092 89.0894 339.014 89.2562C338.719 89.8667 338.338 90.6596 337.923 91.5086C334.996 97.4729 332.052 96.7432 326.743 93.6137L319.44 89.3334C319.302 89.2527 319.153 89.2068 319.001 89.1986C318.849 89.1903 318.698 89.2197 318.555 89.2851C318.412 89.3506 318.282 89.4507 318.171 89.5795C318.061 89.7083 317.972 89.8632 317.911 90.0351L314.393 99.8587C314.273 100.196 314.266 100.578 314.372 100.921C314.478 101.265 314.69 101.544 314.961 101.697C316.507 102.595 319.582 104.385 322.35 106.033C332.33 111.998 340.793 111.598 347.267 98.6097Z" fill="url(#paint4_linear)"/>
</g>
<path d="M672.233 102.898C674.91 102.02 677.873 101.604 680.851 101.683C686.61 101.814 689.776 103.772 689.902 107.603C690.042 111.616 690 115.597 689.979 119.605C689.979 121.236 689.336 121.614 686.925 121.614H683.584C681.452 121.614 680.788 121.18 680.746 119.745V109C680.746 107.336 679.572 106.654 677.056 106.72C676.615 106.724 676.182 106.752 675.749 106.804C672.45 107.252 672.261 107.411 672.261 109.658V119.236C672.261 121.282 671.737 121.628 668.717 121.628H665.369C663.797 121.628 663.105 121.133 663 120.049V94.7455C663 92.8953 663.587 92.5076 666.313 92.5076H669.263C671.548 92.5076 672.254 92.9374 672.296 94.4791C672.359 96.7918 672.296 99.1044 672.296 101.412C672.233 101.838 672.233 102.295 672.233 102.898ZM721.487 112.275C721.285 113.34 721.173 114.704 720.747 116.036C720.083 119.035 716.595 121.408 712.122 121.904C709.06 122.343 705.894 122.315 702.854 121.824C699.003 121.329 695.927 119.381 694.991 116.835C693.6 113.625 693.6 110.214 694.991 107C696.465 103.627 700.324 101.819 705.978 101.688C708.019 101.613 710.06 101.702 712.073 101.94C717.406 102.655 720.432 105.071 721.117 109.018C721.285 110.018 721.334 110.985 721.487 112.275ZM712.171 112.354C712.066 111.256 712.01 110.504 711.905 109.766C711.842 109.378 711.723 108.995 711.549 108.621C711.213 107.379 709.515 106.505 707.634 106.603C705.796 106.51 704.147 107.36 703.818 108.575C702.979 110.794 702.979 113.116 703.818 115.33C704.161 116.564 705.88 117.409 707.746 117.269C709.515 117.349 711.094 116.54 711.437 115.377C711.765 114.377 712.01 113.368 712.178 112.35V112.354H712.171ZM780.499 109.285C780.905 107.224 780.22 106.589 777.249 106.682C774.824 106.818 772.419 107.056 770.043 107.397C768.03 107.64 766.555 107.299 766.276 106.253C765.821 104.529 765.996 103.048 768.065 102.632C772.853 101.581 777.983 101.408 782.904 102.137C787.377 102.851 789.543 104.828 789.543 108.056V119.479C789.543 120.343 789.543 121.231 788.006 121.567C786.3 121.983 784.378 121.633 783.232 120.689L782.757 120.231C780.143 121.628 776.844 122.334 773.496 122.203C766.227 122.025 762.054 117.395 765.213 112.99C766.688 110.892 769.638 110.233 772.685 109.906C775.313 109.644 777.92 109.481 780.499 109.285ZM780.639 112.649C778.878 112.826 777.326 112.924 775.823 113.144C774.251 113.279 773.069 114.162 773.034 115.218C772.706 116.279 773.545 117.353 775.04 117.774C776.515 118.157 779.653 117.774 780.373 117.101C780.513 116.97 780.59 116.816 780.597 116.657C780.639 115.358 780.639 114.069 780.639 112.634V112.649ZM727.806 102.375V99.8239C727.673 99.0437 728.428 98.3149 729.567 98.128C731.07 97.7916 732.601 97.5066 734.152 97.2683C735.271 97.0207 736.48 97.4225 736.85 98.17C736.948 98.3709 736.983 98.5812 736.941 98.7914C736.99 99.8893 736.941 100.983 736.941 102.202H741.316C743.448 102.235 744.182 102.697 744.266 104.174C744.385 107.173 744.14 107.341 739.709 107.341H737.137C737.067 107.607 737.018 107.878 736.997 108.149V114.475C736.997 116.447 737.885 117.05 740.75 117.19C743.267 117.311 743.951 117.685 743.951 119.054C744.042 121.24 743.378 121.978 740.75 122.081C738.667 122.184 736.571 122.114 734.516 121.871C730.245 121.292 727.946 119.442 727.799 116.423C727.673 113.788 727.75 111.153 727.736 108.532V107.35H725.157C723.941 107.416 722.878 106.813 722.774 106V105.865C722.417 103.846 722.955 103.309 725.828 102.767L727.806 102.375ZM759.894 114.639C759.894 118.054 759.992 121.474 759.894 124.889C759.866 128.832 755.072 132.014 749.173 131.995C748.613 131.995 748.054 131.963 747.495 131.902C745.44 131.729 744.706 131.187 744.678 129.762V128.496C744.769 127.305 745.321 126.889 747.09 126.669C749.823 126.328 750.71 125.641 750.717 123.735V104.3C750.717 102.65 751.346 102.211 753.814 102.16H757.168C759.153 102.221 759.901 102.702 759.915 104.038V114.573L759.894 114.639ZM801.104 103.557C803.522 102.398 806.402 101.749 809.372 101.688C812.322 101.688 813 102.104 812.993 104.057V104.935C812.993 106.196 812.21 106.645 810.365 106.776C808.632 106.916 806.905 107.122 805.2 107.383C804.054 107.547 803.62 108.009 803.641 108.864C803.732 112.429 803.641 115.966 803.641 119.512C803.641 121.254 803.075 121.619 800.44 121.651H796.638C795.547 121.712 794.59 121.166 794.499 120.437C794.485 120.348 794.492 120.259 794.506 120.17V103.767C794.422 103.038 795.24 102.398 796.33 102.342H796.337H796.428C798.273 102.132 800.209 101.94 801.104 103.557Z" fill="black"/>
<path d="M758.902 98.6934C760.572 94.6895 759.971 92.6712 757.042 92.2834C757.49 93.6429 757.993 95.0399 755.854 95.9836C754.736 96.4788 753.848 96.2873 751.863 95.2688C750.948 96.5256 751.255 97.7777 751.682 99.1185C748.837 98.7868 746.593 97.9972 745.552 96.1611C744.476 94.4886 745.07 92.5497 747.027 91.2883C747.712 90.8211 748.452 90.3959 749.242 90.0128C752.443 88.4057 753.065 86.8452 751.374 84.4298C751.297 84.2896 751.234 84.1495 751.192 84.0046C754.75 84.3644 758.119 85.3221 760.984 86.7798C767.226 90.1904 766.471 96.3247 759.579 98.5766C759.342 98.5859 759.118 98.6233 758.902 98.6934Z" fill="#EE4854"/>
<path d="M922.6 110.39C922.596 110.812 922.425 111.214 922.125 111.51C921.826 111.807 921.421 111.973 921 111.973C920.579 111.973 920.174 111.807 919.875 111.51C919.575 111.214 919.405 110.812 919.4 110.39V96C919.405 95.5786 919.575 95.1761 919.875 94.8798C920.174 94.5834 920.579 94.4172 921 94.4172C921.421 94.4172 921.826 94.5834 922.125 94.8798C922.425 95.1761 922.596 95.5786 922.6 96V110.39ZM922.042 120.405C921.794 120.617 915.867 125.59 905 125.59C894.133 125.59 888.206 120.617 887.959 120.405C887.637 120.129 887.437 119.736 887.405 119.313C887.372 118.89 887.509 118.471 887.785 118.149C888.061 117.827 888.453 117.628 888.875 117.595C889.297 117.562 889.715 117.697 890.038 117.972C890.132 118.051 895.424 122.39 905 122.39C914.696 122.39 919.907 118.02 919.959 117.976C920.628 117.401 921.64 117.478 922.215 118.149C922.491 118.471 922.628 118.89 922.595 119.313C922.563 119.736 922.364 120.129 922.042 120.405ZM887.4 96C887.404 95.5786 887.575 95.1761 887.875 94.8798C888.174 94.5834 888.579 94.4172 889 94.4172C889.421 94.4172 889.826 94.5834 890.125 94.8798C890.425 95.1761 890.595 95.5786 890.6 96V110.39C890.595 110.812 890.425 111.214 890.125 111.51C889.826 111.807 889.421 111.973 889 111.973C888.579 111.973 888.174 111.807 887.875 111.51C887.575 111.214 887.404 110.812 887.4 110.39V96ZM895.4 92.7999C895.407 92.3798 895.578 91.9791 895.877 91.6843C896.177 91.3895 896.58 91.2243 897 91.2243C897.42 91.2243 897.824 91.3895 898.123 91.6843C898.422 91.9791 898.594 92.3798 898.6 92.7999V114.175C898.594 114.595 898.422 114.996 898.123 115.291C897.824 115.586 897.42 115.751 897 115.751C896.58 115.751 896.177 115.586 895.877 115.291C895.578 114.996 895.407 114.595 895.4 114.175V92.8001V92.7999ZM903.4 91.9903C903.4 91.7802 903.441 91.5721 903.522 91.378C903.602 91.1839 903.72 91.0075 903.869 90.8589C904.017 90.7104 904.194 90.5925 904.388 90.5121C904.582 90.4317 904.79 90.3904 905 90.3904C905.21 90.3903 905.418 90.4317 905.612 90.5121C905.807 90.5924 905.983 90.7103 906.132 90.8589C906.28 91.0074 906.398 91.1838 906.478 91.378C906.559 91.5721 906.6 91.7802 906.6 91.9903V115.19C906.596 115.612 906.425 116.014 906.125 116.31C905.826 116.607 905.421 116.773 905 116.773C904.579 116.773 904.174 116.607 903.875 116.31C903.575 116.014 903.405 115.612 903.4 115.19V91.9903ZM911.4 92.7999C911.407 92.3798 911.578 91.9791 911.877 91.6843C912.177 91.3895 912.58 91.2243 913 91.2243C913.42 91.2243 913.823 91.3895 914.123 91.6843C914.422 91.9791 914.594 92.3798 914.6 92.7999V114.175C914.594 114.595 914.422 114.996 914.123 115.291C913.823 115.586 913.42 115.751 913 115.751C912.58 115.751 912.177 115.586 911.877 115.291C911.578 114.996 911.407 114.595 911.4 114.175V92.8001V92.7999ZM923 84H887C883.686 84 881 86.6863 881 90V126C881 129.313 883.686 132 887 132H923C926.314 132 929 129.313 929 126V90C929 86.6863 926.314 84 923 84Z" fill="#1F8DED"/>
<defs>
<linearGradient id="paint0_linear" x1="128.199" y1="104.507" x2="109.095" y2="128.898" gradientUnits="userSpaceOnUse">
<stop offset="0.18" stop-color="#0052CC"/>
<stop offset="1" stop-color="#2684FF"/>
</linearGradient>
<linearGradient id="paint1_linear" x1="217.378" y1="93.8919" x2="207.601" y2="104.242" gradientUnits="userSpaceOnUse">
<stop offset="0.18" stop-color="#0052CC"/>
<stop offset="1" stop-color="#2684FF"/>
</linearGradient>
<linearGradient id="paint2_linear" x1="2086.68" y1="2143.26" x2="3108.84" y2="2844.93" gradientUnits="userSpaceOnUse">
<stop offset="0.18" stop-color="#0052CC"/>
<stop offset="1" stop-color="#2684FF"/>
</linearGradient>
<linearGradient id="paint3_linear" x1="346.79" y1="133.617" x2="322.35" y2="122.241" gradientUnits="userSpaceOnUse">
<stop offset="0.18" stop-color="#0052CC"/>
<stop offset="1" stop-color="#2684FF"/>
</linearGradient>
<linearGradient id="paint4_linear" x1="-9113.67" y1="33191.6" x2="-8151.69" y2="34085.8" gradientUnits="userSpaceOnUse">
<stop offset="0.18" stop-color="#0052CC"/>
<stop offset="1" stop-color="#2684FF"/>
</linearGradient>
<clipPath id="clip0">
<rect width="48" height="48" fill="white" transform="translate(195 84)"/>
</clipPath>
<clipPath id="clip1">
<rect width="300" height="48" fill="white" transform="translate(313 84)"/>
</clipPath>
</defs>
</svg>
